<svg width="488" height="488" viewBox="0 0 488 488" fill="none" xmlns="http://www.w3.org/2000/svg">
<path d="M268.822 0C296.243 0.073125 310.162 0.219375 322.178 0.560625L326.907 0.731249C332.367 0.926249 337.754 1.17 344.262 1.4625C370.197 2.68125 387.893 6.77625 403.42 12.7969C419.508 18.9881 433.06 27.3731 446.613 40.9012C459.007 53.0862 468.598 67.8256 474.717 84.0937C480.738 99.6206 484.833 117.317 486.052 143.276C486.344 149.76 486.588 155.147 486.783 160.631L486.929 165.36C487.295 177.353 487.441 191.271 487.49 218.693L487.514 236.876V268.807C487.574 286.587 487.387 304.366 486.953 322.14L486.807 326.869C486.612 332.353 486.368 337.74 486.076 344.224C484.857 370.183 480.713 387.855 474.717 403.406C468.616 419.683 459.023 434.426 446.613 446.599C434.424 458.989 419.686 468.579 403.42 474.703C387.893 480.724 370.197 484.819 344.262 486.038C338.478 486.31 332.693 486.554 326.907 486.769L322.178 486.915C310.162 487.256 296.243 487.427 268.822 487.476L250.638 487.5H218.731C200.944 487.561 183.156 487.374 165.374 486.939L160.645 486.793C154.859 486.574 149.074 486.322 143.29 486.038C117.355 484.819 99.6591 480.724 84.1078 474.703C67.8416 468.594 53.1081 459.002 40.9397 446.599C28.5339 434.418 18.9345 419.678 12.8109 403.406C6.79032 387.879 2.69531 370.183 1.47656 344.224C1.205 338.44 0.961245 332.655 0.745314 326.869L0.623442 322.14C0.17426 304.366 -0.0288864 286.587 0.0140644 268.807V218.693C-0.0539654 200.913 0.124804 183.134 0.550316 165.36L0.72094 160.631C0.91594 155.147 1.15969 149.76 1.45219 143.276C2.67094 117.317 6.76594 99.645 12.7866 84.0937C18.9075 67.8089 28.526 53.0649 40.9641 40.9012C53.1294 28.5059 67.8532 18.9147 84.1078 12.7969C99.6591 6.77625 117.331 2.68125 143.29 1.4625C149.774 1.17 155.185 0.926249 160.645 0.731249L165.374 0.584998C183.148 0.151922 200.927 -0.0349708 218.707 0.0243732L268.822 0ZM243.764 121.875C211.441 121.875 180.441 134.715 157.585 157.571C134.729 180.427 121.889 211.427 121.889 243.75C121.889 276.073 134.729 307.073 157.585 329.929C180.441 352.785 211.441 365.625 243.764 365.625C276.087 365.625 307.087 352.785 329.943 329.929C352.799 307.073 365.639 276.073 365.639 243.75C365.639 211.427 352.799 180.427 329.943 157.571C307.087 134.715 276.087 121.875 243.764 121.875ZM243.764 170.625C253.367 170.623 262.876 172.513 271.749 176.187C280.621 179.86 288.683 185.245 295.475 192.034C302.266 198.823 307.654 206.884 311.33 215.755C315.007 224.626 316.9 234.135 316.901 243.738C316.903 253.341 315.013 262.85 311.34 271.722C307.666 280.595 302.281 288.657 295.492 295.449C288.703 302.24 280.643 307.628 271.771 311.304C262.9 314.98 253.391 316.873 243.788 316.875C224.394 316.875 205.795 309.171 192.081 295.457C178.368 281.744 170.663 263.144 170.663 243.75C170.663 224.356 178.368 205.756 192.081 192.043C205.795 178.329 224.394 170.625 243.788 170.625M371.757 85.3125C363.676 85.3125 355.927 88.5226 350.213 94.2366C344.499 99.9506 341.288 107.7 341.288 115.781C341.288 123.862 344.499 131.612 350.213 137.326C355.927 143.04 363.676 146.25 371.757 146.25C379.838 146.25 387.588 143.04 393.302 137.326C399.016 131.612 402.226 123.862 402.226 115.781C402.226 107.7 399.016 99.9506 393.302 94.2366C387.588 88.5226 379.838 85.3125 371.757 85.3125Z" fill="#916CE7"/>
</svg>
