<svg width="2218" height="2229" viewBox="0 0 2218 2229" fill="none" xmlns="http://www.w3.org/2000/svg">
<path d="M1772.01 2228.58C1830.54 2228.58 1888.49 2217.05 1942.56 2194.65C1996.64 2172.25 2045.77 2139.43 2087.15 2098.04C2128.54 2056.65 2161.36 2007.52 2183.76 1953.45C2206.16 1899.38 2217.69 1841.42 2217.69 1782.9C2217.69 1724.37 2206.16 1666.41 2183.76 1612.34C2161.36 1558.27 2128.54 1509.14 2087.15 1467.75C2045.77 1426.37 1996.64 1393.54 1942.56 1371.14C1888.49 1348.74 1830.54 1337.22 1772.01 1337.22H1747.54L1101.16 1983.21C1087.86 1995.92 1077.28 2011.19 1070.04 2028.11C1062.8 2045.02 1059.06 2063.22 1059.04 2081.62C1059.04 2161.05 1123.22 2228.71 1202.78 2228.71H1772.15L1772.01 2228.58ZM1257.87 329.656L1140.2 447.327C1088.31 499.379 1059.13 569.856 1059.04 643.357V1561.33C1059.04 1679 1059.04 1737.7 1093.94 1751.74C1128.84 1765.78 1169.49 1723.26 1250.92 1638.48L1901.45 959.866C1985.02 874.504 2031.26 759.44 2029.99 639.986C2028.72 520.532 1980.06 406.474 1894.7 322.903C1809.33 239.332 1694.27 193.094 1574.82 194.36C1455.37 195.627 1341.44 244.294 1257.87 329.656Z" fill="#CCCCCC"/>
<path fill-rule="evenodd" clip-rule="evenodd" d="M891.485 445.747V1782.92C891.485 1841.46 879.956 1899.42 857.555 1953.5C835.154 2007.58 802.321 2056.72 760.93 2098.11C719.539 2139.5 670.401 2172.34 616.321 2194.74C562.241 2217.14 504.278 2228.67 445.743 2228.67C387.207 2228.67 329.244 2217.14 275.164 2194.74C221.084 2172.34 171.946 2139.5 130.555 2098.11C89.164 2056.72 56.3308 2007.58 33.9301 1953.5C11.5295 1899.42 -8.72251e-07 1841.46 0 1782.92V445.747C-8.72251e-07 387.211 11.5295 329.247 33.9301 275.167C56.3308 221.086 89.164 171.948 130.555 130.556C171.946 89.1648 221.084 56.3313 275.164 33.9305C329.244 11.5296 387.207 0 445.743 0C504.278 0 562.241 11.5296 616.321 33.9305C670.401 56.3313 719.539 89.1648 760.93 130.556C802.321 171.948 835.154 221.086 857.555 275.167C879.956 329.247 891.485 387.211 891.485 445.747ZM445.676 1894.31C475.217 1894.31 503.548 1882.57 524.437 1861.68C545.326 1840.79 557.061 1812.46 557.061 1782.92C557.061 1753.38 545.326 1725.05 524.437 1704.16C503.548 1683.27 475.217 1671.53 445.676 1671.53C416.134 1671.53 387.803 1683.27 366.914 1704.16C346.025 1725.05 334.29 1753.38 334.29 1782.92C334.29 1812.46 346.025 1840.79 366.914 1861.68C387.803 1882.57 416.134 1894.31 445.676 1894.31Z" fill="#CCCCCC"/>
</svg>
