<svg width="11507" height="11507" viewBox="0 0 11507 11507" fill="none" xmlns="http://www.w3.org/2000/svg">
<path fill-rule="evenodd" clip-rule="evenodd" d="M11507 5753.5C11507 7279.42 10900.8 8742.85 9821.84 9821.84C8742.85 10900.8 7279.42 11507 5753.5 11507C4227.58 11507 2764.15 10900.8 1685.16 9821.84C606.171 8742.85 0 7279.42 0 5753.5C0 4227.58 606.171 2764.15 1685.16 1685.16C2764.15 606.17 4227.58 0 5753.5 0C7279.42 0 8742.85 606.17 9821.84 1685.16C10900.8 2764.15 11507 4227.58 11507 5753.5ZM6609.26 2558.3C6664.01 2572.88 6715.35 2598.12 6760.33 2632.57C6805.31 2667.03 6843.06 2710.01 6871.41 2759.07C6899.75 2808.13 6918.14 2862.31 6925.52 2918.48C6932.9 2974.66 6929.13 3031.74 6914.42 3086.46L5425.9 8644.23C5396.24 8754.83 5323.86 8849.11 5224.68 8906.34C5125.5 8963.57 5007.65 8979.05 4897.05 8949.39C4786.45 8919.73 4692.17 8847.34 4634.94 8748.17C4577.71 8648.99 4562.23 8531.14 4591.89 8420.54L6081.1 2862.77C6110.86 2752.42 6183.19 2658.38 6282.21 2601.3C6381.23 2544.22 6498.85 2528.75 6609.26 2558.3ZM7461.91 3722.32C7501.98 3682.24 7549.55 3650.45 7601.91 3628.76C7654.27 3607.06 7710.39 3595.9 7767.07 3595.9C7823.75 3595.9 7879.87 3607.06 7932.23 3628.76C7984.58 3650.45 8032.16 3682.24 8072.23 3722.32L8192.36 3842.46C8557.58 4208.37 8862.05 4512.15 9071.94 4786.93C9292.87 5076.9 9448.21 5382.75 9448.21 5753.5C9448.21 6124.25 9292.87 6430.1 9071.94 6720.07C8862.74 6994.16 8557.58 7299.32 8192.36 7664.54L8072.23 7784.68C7991.3 7865.61 7881.53 7911.08 7767.07 7911.08C7652.61 7911.08 7542.84 7865.61 7461.91 7784.68C7380.98 7703.74 7335.51 7593.97 7335.51 7479.52C7335.51 7365.06 7380.98 7255.29 7461.91 7174.36L7560.64 7075.63C7952.79 6683.48 8215.83 6419.74 8385.67 6196.74C8548.61 5983.41 8585.2 5859.82 8585.2 5753.5C8585.2 5647.18 8547.92 5523.59 8385.67 5310.26C8215.83 5087.95 7952.79 4823.52 7560.64 4431.37L7461.91 4332.64C7421.83 4292.57 7390.03 4245 7368.34 4192.64C7346.65 4140.28 7335.48 4084.16 7335.48 4027.48C7335.48 3970.81 7346.65 3914.69 7368.34 3862.33C7390.03 3809.97 7421.83 3762.4 7461.91 3722.32ZM3434.77 3722.32C3515.7 3641.39 3625.47 3595.92 3739.93 3595.92C3854.39 3595.92 3964.16 3641.39 4045.09 3722.32C4126.02 3803.26 4171.49 3913.03 4171.49 4027.48C4171.49 4141.94 4126.02 4251.71 4045.09 4332.64L3946.36 4431.37C3554.21 4823.52 3291.17 5087.26 3121.33 5310.26C2958.39 5523.59 2921.8 5647.18 2921.8 5753.5C2921.8 5859.82 2958.39 5983.41 3121.33 6196.74C3291.17 6419.05 3554.21 6683.48 3946.36 7075.63L4045.09 7174.36C4126.02 7255.29 4171.49 7365.06 4171.49 7479.52C4171.49 7593.97 4126.02 7703.74 4045.09 7784.68C3964.16 7865.61 3854.39 7911.08 3739.93 7911.08C3625.47 7911.08 3515.7 7865.61 3434.77 7784.68L3314.64 7664.54C2948.72 7298.63 2644.95 6994.85 2435.06 6720.07C2214.13 6430.1 2058.79 6124.25 2058.79 5753.5C2058.79 5382.75 2214.13 5076.9 2435.06 4786.93C2644.26 4512.84 2949.42 4207.68 3314.64 3842.46L3434.77 3722.32Z" fill="#CCCCCC"/>
</svg>
