<svg width="1783" height="2229" viewBox="0 0 1783 2229" fill="none" xmlns="http://www.w3.org/2000/svg">
<path fill-rule="evenodd" clip-rule="evenodd" d="M130.519 130.519C-2.39126e-05 261.039 0 471.26 0 891.436V1337.29C0 1757.46 -2.39126e-05 1967.69 130.519 2098.2C261.172 2228.72 471.26 2228.72 891.436 2228.72C1311.75 2228.72 1521.97 2228.72 1652.49 2098.2C1783.01 1967.69 1783.01 1757.46 1783.01 1337.29V891.436C1783.01 471.26 1783.01 261.039 1652.49 130.519C1521.97 -2.39126e-05 1311.75 0 891.57 0C471.26 0 261.039 -2.39126e-05 130.519 130.519ZM557.114 250.741C534.947 250.741 513.688 259.547 498.014 275.222C482.339 290.896 473.534 312.155 473.534 334.322C473.534 356.489 482.339 377.748 498.014 393.422C513.688 409.097 534.947 417.902 557.114 417.902H1225.76C1247.92 417.902 1269.18 409.097 1284.86 393.422C1300.53 377.748 1309.34 356.489 1309.34 334.322C1309.34 312.155 1300.53 290.896 1284.86 275.222C1269.18 259.547 1247.92 250.741 1225.76 250.741H557.114ZM891.436 1894.4C921.162 1895.13 950.732 1889.9 978.408 1879.03C1006.08 1868.16 1031.3 1851.86 1052.59 1831.09C1073.87 1810.33 1090.78 1785.51 1102.33 1758.11C1113.87 1730.71 1119.82 1701.28 1119.82 1671.54C1119.82 1641.81 1113.87 1612.37 1102.33 1584.97C1090.78 1557.57 1073.87 1532.76 1052.59 1511.99C1031.3 1491.23 1006.08 1474.93 978.408 1464.05C950.732 1453.18 921.162 1447.96 891.436 1448.68C833.275 1450.11 777.976 1474.21 737.344 1515.85C696.713 1557.49 673.97 1613.36 673.97 1671.54C673.97 1729.72 696.713 1785.59 737.344 1827.23C777.976 1868.87 833.275 1892.98 891.436 1894.4Z" fill="#CCCCCC"/>
</svg>
