<svg width="5572" height="1115" viewBox="0 0 5572 1115" fill="none" xmlns="http://www.w3.org/2000/svg">
<path d="M5571.87 267.986V850.75H5377.53V744.76C5361.09 784.687 5336.1 815.099 5302.56 835.815C5269.01 856.531 5227.52 866.95 5178.38 866.95C5134.42 866.95 5096.06 856.11 5063.3 834.249C5030.15 811.929 5003.87 780.816 4987.42 744.399C4969.77 706.339 4960.86 663.341 4960.86 615.224C4960.26 565.661 4969.71 521.097 4989.04 481.712C5007.02 443.856 5035.35 411.868 5070.76 389.453C5105.93 367.412 5146.04 356.331 5191.09 356.331C5283.65 356.331 5345.86 397.282 5377.53 479.303V268.046H5571.93L5571.87 267.986ZM5348.45 686.165C5368.32 666.472 5378.13 640.878 5378.13 609.683C5378.13 578.488 5368.56 554.882 5349.23 536.032C5330.02 517.183 5303.58 507.728 5270.4 507.728C5237.28 507.728 5211.44 517.303 5191.87 536.514C5172.24 555.664 5162.54 580.536 5162.54 611.309C5162.54 642.082 5172.24 667.195 5191.87 686.586C5211.44 706.038 5237.34 715.673 5269.61 715.673C5302.32 715.673 5328.57 705.737 5348.45 686.165ZM4926.05 386.141V561.024C4905.88 547.474 4879.74 540.73 4847.52 540.73C4805.19 540.73 4772.61 553.798 4749.96 579.934C4727.14 606.13 4715.82 646.78 4715.82 701.822V850.75H4521.42V377.288H4711.84V527.782C4722.38 472.8 4739.54 432.21 4763.09 405.954C4786.58 379.817 4816.87 366.81 4853.85 366.81C4881.91 366.81 4905.88 373.253 4926.05 386.141ZM3984.67 832.985C3938.9 810.281 3904.03 779.327 3879.94 739.882C3855.8 700.143 3843.28 654.431 3843.81 607.937C3843.81 559.338 3855.85 516.039 3879.94 477.979C3904.03 439.919 3938.78 410.109 3984.37 388.489C4029.77 366.81 4084.03 356.09 4146.96 356.09C4209.9 356.09 4264.16 366.87 4309.68 388.489C4355.15 410.109 4389.78 439.678 4413.57 477.557C4437.41 515.316 4449.34 558.736 4449.34 607.877C4449.99 654.32 4437.6 700.015 4413.57 739.762C4389.78 779.207 4354.97 810.221 4309.2 832.864C4263.43 855.508 4209.29 866.829 4146.9 866.829C4084.51 866.829 4030.38 855.628 3984.67 832.925V832.985ZM4225.79 689.356C4245.07 669.664 4254.82 643.648 4254.82 611.309C4254.82 578.91 4245.19 553.135 4225.73 534.045C4206.52 514.834 4180.21 505.259 4146.9 505.259C4113.6 505.259 4086.44 514.894 4067.11 534.045C4047.84 553.195 4038.2 578.91 4038.2 611.309C4038.2 643.648 4047.84 669.724 4067.11 689.356C4086.38 708.989 4112.94 718.865 4146.9 718.865C4180.21 718.865 4206.52 708.989 4225.79 689.356ZM3420.93 832.925C3375.41 810.341 3341.14 779.508 3318.19 740.665C3295.31 701.822 3283.75 658.101 3283.75 609.563C3283.75 561.084 3295.61 517.544 3319.46 479.243C3343.31 441.003 3378.18 410.892 3424.25 389.031C3470.19 367.171 3525.18 356.331 3589.25 356.331C3668.56 356.331 3734.39 373.314 3786.78 407.339V555.484C3766.92 541.818 3745.14 531.164 3722.16 523.867C3696.64 515.62 3669.97 511.513 3643.15 511.703C3593.95 511.703 3555.53 520.856 3527.77 539.224C3500.06 557.592 3486.03 581.56 3486.03 611.309C3486.03 641.059 3499.52 664.184 3526.56 682.973C3553.48 701.642 3592.56 710.976 3643.99 710.976C3670.37 710.976 3696.39 707.001 3722.16 699.293C3745.33 692.476 3767.56 682.807 3788.34 670.507V813.774C3730.23 849.365 3662.78 867.191 3586 867.191C3521.44 866.95 3466.4 855.688 3420.93 832.925ZM2859.19 849.967C2818.25 839.513 2779.16 822.86 2743.26 800.586V666.231C2769.28 686.707 2804.08 703.569 2847.74 716.817C2888.71 729.634 2931.35 736.331 2974.27 736.69C2993.36 736.69 3007.69 734.041 3017.45 728.982C3027.26 723.863 3032.14 717.781 3032.14 710.675C3032.24 706.946 3031.58 703.236 3030.2 699.769C3028.82 696.302 3026.76 693.149 3024.13 690.501C3018.83 685.02 3008.48 680.564 2993.24 676.71L2898.09 654.91C2843.53 641.902 2804.87 623.956 2781.86 601.011C2758.86 578.067 2747.41 548.016 2747.41 510.799C2747.41 479.484 2757.35 452.324 2777.53 429.019C2797.64 405.833 2826.18 387.887 2863.22 375.241C2900.38 362.594 2943.62 356.211 2993.42 356.211C3037.8 356.211 3078.51 361.028 3115.55 370.784C3152.65 380.54 3183.24 392.825 3207.63 408.001V535.069C3180.74 519.094 3151.76 506.953 3121.51 498.996C3088.76 490.073 3054.95 485.616 3021 485.747C2971.26 485.747 2946.45 494.419 2946.45 511.643C2946.45 519.712 2950.3 525.734 2958.01 529.829C2965.72 533.864 2979.81 538.02 3000.35 542.416L3079.72 556.989C3131.57 566.023 3170.17 582.162 3195.52 605.046C3221 627.93 3233.7 661.835 3233.7 706.7C3233.7 755.841 3212.69 794.804 3170.65 823.711C3128.62 852.617 3068.88 867.07 2991.67 867.07C2946.96 867.094 2902.43 861.345 2859.19 849.967ZM2462.69 488.879C2522.07 514.955 2595.78 516.099 2656.48 488.879V853.219H2462.69V488.879ZM2559.64 427.694C2613.18 427.694 2656.6 387.947 2656.6 338.867C2656.6 289.846 2613.18 250.1 2559.64 250.1C2506.23 250.1 2462.69 289.846 2462.69 338.867C2462.69 387.887 2506.17 427.694 2559.64 427.694ZM1742.8 284.186H2052.22C2126.83 284.186 2189.82 296.049 2241.49 319.777C2293.1 343.504 2331.71 376.565 2357.36 418.901C2382.95 461.177 2395.9 509.715 2395.9 564.276C2395.9 618.777 2382.47 666.051 2355.73 709.47C2329 752.95 2288.29 787.277 2233.54 812.63C2178.86 837.923 2111.05 850.69 2029.99 850.69H1742.8V284.186ZM2026.86 706.64C2077.03 706.64 2115.69 693.813 2142.67 668.339C2169.59 642.564 2183.08 607.696 2183.08 563.433C2183.08 522.362 2171.03 489.601 2147.07 465.151C2123.04 440.641 2086.66 428.236 2038 428.236H1941.23V706.64H2026.8H2026.86ZM1434.95 927.352C1325.06 1010.31 1201.57 1073.48 1070 1114.04C1040.46 1073.5 1014.37 1030.55 992.016 985.647C1034.77 969.387 1075.96 949.393 1115.17 925.726C1104.94 918.038 1094.9 910.107 1085.06 901.938C850.736 1012.69 593.108 1012.69 356.016 901.938C346.139 910.189 336.143 918.138 325.784 925.726C364.748 949.092 405.879 969.206 448.877 985.526C426.294 1030.75 400.098 1073.63 370.71 1114.04C239.3 1073.36 115.943 1010.2 6.12826 927.352C-19.4057 654.428 31.6622 377.529 219.734 93.4639C314.331 49.186 414.422 17.753 517.349 0C530.237 23.0649 545.533 54.1994 555.891 78.8903C665.084 62.2392 776.17 62.2392 885.363 78.8903C895.661 54.1994 910.656 23.0649 923.423 0C1027.73 18.0665 1127.51 49.6226 1220.74 93.2832C1383.82 336.578 1464.94 610.948 1435.01 927.352H1434.95ZM610.632 612.273C611.957 531.335 553.542 464.971 481.156 464.971C408.71 464.971 351.559 531.455 351.559 612.333C351.559 693.15 409.914 759.454 481.156 759.454C552.338 759.454 610.813 693.09 610.632 612.273ZM1089.39 612.273C1090.72 531.335 1032.36 464.971 959.918 464.971C887.471 464.971 830.321 531.455 830.321 612.333C830.321 693.15 888.736 759.454 959.918 759.454C1031.1 759.454 1089.39 693.09 1089.39 612.273Z" fill="#999999"/>
</svg>
