<svg width="4438" height="1084" viewBox="0 0 4438 1084" fill="none" xmlns="http://www.w3.org/2000/svg">
<path d="M1355.77 436.138C1380.17 436.138 1403.56 426.448 1420.81 409.198C1438.06 391.948 1447.75 368.553 1447.75 344.158C1447.75 319.763 1438.06 296.368 1420.81 279.118C1403.56 261.868 1380.17 252.177 1355.77 252.177C1331.38 252.177 1307.98 261.868 1290.73 279.118C1273.48 296.368 1263.79 319.763 1263.79 344.158C1263.79 368.553 1273.48 391.948 1290.73 409.198C1307.98 426.448 1331.38 436.138 1355.77 436.138ZM4390.52 750.397C4376.49 740.589 4365.72 738.963 4356.72 758.019C4202.29 1092.55 3942.05 925.617 3967.92 940.303C4025.65 913.878 4177.49 792.118 4154.52 624.012C4140.6 521.258 4052.38 475.624 3958.77 491.987C3795.39 520.445 3735.27 696.733 3765.86 852.795C3771.2 879.576 3780.75 901.682 3790.36 923.279C3605.69 1073.5 3532.36 788.866 3524.07 754.869C3523.72 753.039 3666.62 633.922 3706.36 350.104C3748.03 52.6154 3653.15 -1.55659 3556.09 0.120405C3376.5 3.27112 3327.97 378.46 3393.17 691.143C3387.68 692.566 3362.27 706.642 3321.51 708.218C3292.09 615.729 3166.52 534.725 3133.69 565.927C3051.47 644.086 3153.66 796.793 3225.52 808.786C3182.32 1074.77 2912.28 1008.86 2962.53 675.643C3050.45 512.315 3117.38 269.456 3105.43 122.846C3101.22 70.9606 3062.85 1.39083 2976.05 4.84645C2809.11 11.4528 2790.97 386.743 2810.54 653.131C2809.57 646.525 2800.27 685.451 2731.92 704.813C2715.71 615.018 2571.08 524.867 2537.04 568.214C2473.31 649.32 2583.79 793.948 2636.13 804.01C2592.94 1070.04 2322.84 1004.18 2373.1 670.917C2461.01 507.588 2527.94 264.73 2516 118.171C2511.78 66.2346 2473.41 -3.2844 2386.61 0.120405C2219.68 6.72674 2201.54 382.017 2221.1 648.405C2220.08 641.799 2210.63 681.945 2139.44 701.002C2137.05 584.476 1991.91 531.016 1957 568.214C1894.9 634.481 1971.23 770.47 2041.87 804.06C1998.72 1070.04 1728.67 1004.18 1778.93 670.917C1866.85 507.639 1933.78 264.78 1921.83 118.171C1917.62 66.2346 1879.25 -3.28443 1792.45 0.171195C1625.51 6.77753 1612.05 400.922 1631.66 667.309C1576.68 902.851 1392.31 1197.04 1416.19 607.751C1418.58 566.385 1421.17 550.682 1400.54 535.233C1385.09 523.19 1349.98 528.983 1330.82 529.44C1307.44 530.406 1301.65 544.025 1296.47 564.708C1284.42 617.965 1282.29 669.596 1280.56 740.081C1279.44 773.112 1276.8 788.459 1264.1 833.433C1251.39 878.356 1179.08 960.478 1139.49 946.757C1084.51 927.853 1102.55 772.757 1112.86 666.191C1121.45 581.986 1093.96 544.127 1023.58 530.355C982.413 521.767 957.359 523.088 914.418 509.57C873.815 496.815 864.617 420.029 778.074 445.591C730.762 459.616 761.202 559.931 749.819 634.278C693.868 1000.01 577.444 1010.08 523.425 832.417C766.64 236.678 593.808 1.84819 492.629 1.84819C391.4 1.84819 266.743 74.467 317.765 538.943C292.965 531.676 285.343 527.763 258.155 527.763C104.634 527.763 0 651.962 0 805.077C0 958.191 104.634 1082.34 258.155 1082.34C348.814 1082.34 412.489 1041.18 460.716 977.35C492.121 1022.43 530.438 1083.05 600.465 1080.31C809.225 1072.18 869.953 643.984 877.118 620.099C899.478 623.555 920.567 630.06 941.149 633.515C975.501 638.597 977.992 652.216 977.229 686.773C968.082 978.01 1021.85 1080 1143.76 1080C1211.7 1080 1272.23 1013.28 1313.9 965.509C1345.05 1029.84 1394.7 1078.02 1461.27 1079.95C1622.67 1084.02 1684.41 826.827 1678.77 860.672C1674.35 887.199 1731.11 1078.53 1897.29 1079.19C2103 1080.1 2141.21 853.811 2145.79 815.952C2146.65 809.142 2146.4 808.329 2145.79 815.952L2145.64 818.188C2210.99 806.042 2244.68 771.029 2244.68 771.029C2244.68 771.029 2297.12 1082.75 2491.4 1079.24C2693.15 1075.58 2731.26 871.039 2736.24 831.146C2737.26 822.812 2736.9 821.694 2736.24 831.146L2736.14 832.315C2813.74 804.111 2834.17 775.755 2834.17 775.755C2834.17 775.755 2875.84 1081.27 3080.89 1083.97C3263.63 1086.35 3331.32 899.192 3331.73 820.881C3362.57 821.237 3419.54 802.587 3418.22 801.57C3418.22 801.57 3485.15 1068.67 3672.05 1082.39C3759.82 1088.84 3825.68 1033 3863.18 1007.54C3951.4 1078.93 4245.03 1170.15 4430.46 855.793C4456.63 810.667 4400.43 757.359 4390.52 750.397ZM250.787 978.671C161.195 978.671 103.719 895.838 103.719 806.5C103.719 717.162 156.468 634.328 246.01 634.328C286.359 634.328 308.821 638.75 340.226 666.09C345.918 688.5 362.078 740.284 369.904 763.762C380.423 795.218 392.924 821.999 405.527 851.169C387.538 925.871 328.386 978.671 250.787 978.671ZM469.1 668.681C465.391 662.736 466.153 666.395 461.986 660.805C445.572 616.085 413.912 516.38 410.253 403.158C406.086 274.995 427.43 124.828 490.444 124.828C533.08 124.828 578.41 429.227 469.1 668.681ZM1730.66 535.183C1720.54 459.159 1719.98 120.203 1801.39 129.503C1846.32 147.696 1772.94 467.544 1730.66 535.183ZM2324.82 535.183C2314.76 459.159 2314.2 120.203 2395.56 129.503C2440.48 147.696 2367.1 467.544 2324.82 535.183ZM2914.31 539.909C2904.14 463.834 2903.64 124.878 2985.05 134.229C3029.97 152.422 2956.59 472.27 2914.31 539.909ZM3565.08 109.684C3639.48 101.96 3636.38 426.839 3487.08 631.94C3467.77 557.847 3438.29 135.144 3565.08 109.684ZM3877.77 808.786C3853.88 688.043 3915.62 608.767 3979.25 600.077C4001.51 596.52 4033.73 610.952 4040.18 637.886C4050.75 688.704 4038.66 764.016 3896.21 859.554C3896.42 860.367 3883.1 835.72 3877.77 808.786Z" fill="#999999"/>
</svg>
