<svg width="5151" height="997" viewBox="0 0 5151 997" fill="none" xmlns="http://www.w3.org/2000/svg">
<mask id="mask0_2318_2327" style="mask-type:luminance" maskUnits="userSpaceOnUse" x="0" y="0" width="5151" height="997">
<path d="M0 0H5150.33V996.788H0V0Z" fill="white"/>
</mask>
<g mask="url(#mask0_2318_2327)">
<path d="M326.281 981.431H132.247V497.671H0V340.131H132.247V228.119C132.247 95.2705 190.662 0 384.214 0C425.164 0 489.421 8.25036 489.421 8.25036V154.529H421.973C353.139 154.529 326.281 175.425 326.281 233.238V340.131H486.891L472.559 497.671H326.281V981.431ZM771.559 327.545L762.947 327.726C583.005 327.726 500.682 463.044 500.682 655.211C500.682 897.301 607.515 994.138 764.392 994.138C854.123 994.138 913.14 956.379 948.972 885.859V981.491H1133.55V340.192H948.972V438.835C919.704 375.361 859.121 328.268 771.619 327.545H771.559ZM818.532 479.123C894.11 479.123 939.457 531.817 939.457 621.487L939.637 713.023C939.637 773.546 902.179 844.246 818.532 844.246C689.898 844.246 693.331 705.375 693.331 659.125C693.331 503.513 761.863 479.123 818.532 479.123ZM1208.11 660.872C1208.11 582.945 1204.37 327.967 1536.55 327.967C1669.94 327.967 1725.65 370.363 1725.65 370.363L1680.84 509.173C1680.84 509.173 1625.2 478.581 1552.75 478.581C1459.95 478.581 1400.75 532.359 1400.75 627.027L1400.81 694.897C1400.81 785.892 1458.02 846.655 1552.93 846.655C1618.94 846.655 1679.82 815.701 1679.82 815.701L1724.44 951.621C1724.44 951.621 1673.56 994.318 1537.46 994.318C1221.17 994.318 1208.11 765.476 1208.11 660.872ZM2807.89 327.726C2987.89 327.726 3071.48 463.104 3071.48 655.271C3071.48 897.362 2964.71 994.198 2807.83 994.198C2718.1 994.198 2651.68 956.379 2615.84 885.859V981.491L2433.61 981.431V19.4516L2627.11 2.58954V430.163C2655.05 355.368 2746.83 327.786 2807.95 327.786L2807.89 327.726ZM2753.69 479.123C2678.11 479.123 2627.11 531.817 2627.11 621.487L2626.93 713.023C2626.8 773.546 2662.22 844.246 2753.69 844.246C2882.26 844.246 2878.83 705.375 2878.83 659.125C2878.83 503.513 2810.3 479.123 2753.69 479.123ZM2061.38 328.268C1857.23 328.268 1749.5 439.557 1749.5 637.265V674C1749.5 930.724 1900.83 996.788 2081.26 996.788C2261.62 996.788 2335.99 947.767 2335.99 947.767L2299.74 817.086C2299.74 817.086 2206.4 856.833 2104.44 856.833C2002.55 856.833 1953.29 829.914 1941.66 728.38H2351.47V623.594C2351.47 409.085 2230.55 328.268 2061.38 328.268ZM2066.32 459.009C2136.96 459.009 2182.73 502.368 2180.26 602.818H1942.03C1946.18 497.069 1995.56 459.009 2066.32 459.009ZM3457.38 327.364C3247.81 327.364 3137.42 445.459 3137.42 657.138C3137.42 947.586 3327.6 994.379 3457.74 994.379C3648.16 994.379 3774.87 891.821 3774.87 659.788C3774.87 427.754 3632.38 327.364 3457.38 327.364ZM3454.73 479.605C3546.87 479.605 3583.42 548.558 3583.42 627.147V694.596C3583.42 789.746 3532.36 844.728 3454.37 844.728C3381.5 844.728 3330.31 793.299 3330.31 694.596V627.147C3330.31 521.88 3391.2 479.605 3454.73 479.605ZM4160.41 327.364C3950.84 327.364 3840.45 445.459 3840.45 657.138C3840.45 947.586 4030.63 994.379 4160.77 994.379C4351.19 994.379 4477.9 891.821 4477.9 659.788C4477.9 427.754 4335.41 327.364 4160.41 327.364ZM4157.76 479.605C4249.9 479.605 4286.45 548.558 4286.45 627.147V694.596C4286.45 789.746 4235.32 844.728 4157.4 844.728C4084.53 844.728 4033.28 793.299 4033.28 694.596V627.147C4033.28 521.88 4094.22 479.605 4157.76 479.605ZM4551 981.431V19.4516L4745.1 2.58954V647.442L4937.63 340.192H5142.62L4941.72 658.402L5150.33 981.491H4944.79L4745.1 667.737V981.491L4551 981.431Z" fill="#999999"/>
</g>
</svg>
