<svg width="5571" height="1350" viewBox="0 0 5571 1350" fill="none" xmlns="http://www.w3.org/2000/svg">
<mask id="mask0_2318_2344" style="mask-type:luminance" maskUnits="userSpaceOnUse" x="1505" y="150" width="4066" height="1200">
<path d="M1505.54 150.555H5570.5V1349.2H1505.54V150.555Z" fill="white"/>
</mask>
<g mask="url(#mask0_2318_2344)">
<path d="M1714.75 154.708C1631.58 190.901 1540.11 293.157 1511.2 421.489C1474.65 584.208 1626.83 652.981 1639.35 630.458C1654.05 603.961 1612.07 594.927 1603.4 510.617C1592.26 401.616 1641.04 279.788 1702.34 226.371C1713.79 216.435 1713.18 230.225 1713.18 255.82C1713.18 301.528 1710.77 711.818 1710.77 797.453C1710.77 913.319 1706.2 949.934 1697.95 986.067C1689.52 1022.74 1676.09 1047.49 1686.26 1057.01C1697.71 1067.67 1746.36 1042.31 1774.55 1001.42C1808.33 952.403 1820.2 893.446 1822.3 829.49C1824.89 752.407 1824.71 630.037 1824.89 560.3C1824.95 496.224 1825.92 308.815 1823.81 196.14C1823.27 168.498 1749.56 139.532 1714.81 154.647L1714.75 154.708ZM5552.25 763.427C5540.2 763.427 5534.66 776.375 5530.09 798.115C5514.31 873.814 5497.69 890.856 5476.25 890.856C5452.34 890.856 5430.84 853.459 5425.3 778.423C5420.97 719.405 5421.69 610.826 5427.23 502.788C5428.37 480.627 5422.41 458.646 5365.2 437.026C5340.51 427.692 5304.68 414.022 5286.85 458.766C5236.45 585.232 5216.75 685.621 5212.12 726.391C5211.88 728.499 5209.41 728.92 5208.93 723.982C5205.91 691.342 5199.35 631.964 5198.57 507.305C5198.39 482.975 5193.39 462.259 5167.61 445.277C5150.81 434.316 5099.92 414.805 5081.56 437.99C5065.72 456.9 5047.29 507.847 5028.2 568.249C5019.51 595.704 5010.72 623.125 5001.82 650.512C5001.82 650.512 5002.06 518.085 5002.24 467.86C5002.31 448.89 4989.84 442.567 4985.98 441.483C4969.12 436.364 4935.64 427.752 4921.43 427.752C4903.96 427.752 4899.63 437.99 4899.63 452.804C4899.63 454.731 4896.86 627.146 4896.86 747.71V764.752C4887.22 820.156 4855.79 895.433 4821.58 895.433C4787.43 895.433 4771.29 863.937 4771.29 720.188C4771.29 636.36 4773.7 599.926 4774.91 539.222C4775.57 504.294 4776.9 477.495 4776.84 471.413C4776.59 452.744 4745.52 443.35 4731.07 439.857C4719.01 436.666 4706.56 435.226 4694.09 435.581C4680.12 436.364 4670.3 445.879 4670.3 458.947V479.302C4652.42 449.974 4623.51 429.559 4604.3 423.657C4552.51 407.638 4498.49 421.851 4457.78 481.109C4425.38 528.142 4405.87 581.498 4398.16 658.16C4392.56 714.166 4394.37 770.955 4404.36 818.952C4392.32 873.151 4369.92 895.433 4345.35 895.433C4309.82 895.433 4283.92 835.031 4286.93 730.546C4288.98 661.894 4302.17 613.656 4316.62 543.859C4322.82 514.17 4317.83 498.573 4305.24 483.638C4293.74 469.968 4269.17 462.982 4233.88 471.594C4208.7 477.736 4172.75 484.361 4139.93 489.359C4139.93 489.359 4141.92 481.169 4143.55 466.655C4152.1 390.596 4072.48 396.738 4047.19 421.007C4032.01 435.521 4021.72 452.624 4017.8 483.397C4015.86 497.173 4017.83 511.217 4023.5 523.924C4029.16 536.63 4038.29 547.483 4049.84 555.241C4037.31 615.102 4006.48 693.149 3974.68 749.697C3957.64 779.928 3944.57 802.331 3927.77 826.178C3927.22 730.523 3927.82 634.864 3929.58 539.222C3930.3 504.294 3931.69 478.218 3931.57 472.136C3931.38 458.465 3923.74 453.346 3907.78 446.843C3892.4 440.684 3876.18 436.907 3859.66 435.641C3837.86 433.835 3824.67 445.879 3825.03 460.152V479.362C3807.15 450.034 3778.24 429.559 3759.03 423.657C3707.24 407.698 3653.22 421.851 3612.51 481.109C3580.11 528.202 3558.91 594.325 3552.89 657.558C3547.29 716.575 3548.32 766.679 3555.9 808.955C3547.71 851.23 3524.05 895.433 3497.31 895.433C3463.1 895.433 3443.59 863.997 3443.59 720.248C3443.59 636.42 3446 599.926 3447.2 539.283C3447.93 504.354 3449.25 477.495 3449.19 471.413C3448.89 452.744 3417.88 443.35 3403.42 439.857C3390.96 436.543 3378.07 435.122 3365.18 435.641C3351.93 436.725 3342.66 449.01 3342.66 458.164V479.362C3324.71 450.034 3295.81 429.559 3276.6 423.657C3224.8 407.698 3171.09 422.091 3130.08 481.109C3103.34 519.65 3081.66 562.287 3070.46 656.715C3067.27 684.055 3065.82 709.589 3066.06 733.497C3055.34 801.307 3008.25 879.535 2969.65 879.535C2947.06 879.535 2925.56 834.007 2925.56 737.111C2925.56 607.935 2933.27 424.079 2934.6 406.313L2992.77 405.35C3017.04 405.049 3039.08 405.651 3071.42 403.965C3087.68 403.061 3103.34 342.539 3086.54 335.011C3078.95 331.639 3025.29 328.628 3004.03 328.206C2986.15 327.784 2936.28 323.93 2936.28 323.93C2936.28 323.93 2940.8 201.861 2941.82 189.034C2942.67 178.194 2929.3 172.714 2921.65 169.341C2902.98 161.151 2886.3 157.237 2866.55 152.961C2839.21 147.12 2826.8 152.841 2824.39 176.809C2820.78 213.183 2818.85 319.775 2818.85 319.775C2798.8 319.775 2730.33 315.68 2710.21 315.68C2691.54 315.68 2671.49 399.027 2697.26 400.05C2726.89 401.255 2778.56 402.279 2812.83 403.363C2812.83 403.363 2811.26 590.29 2811.26 647.983C2811.26 654.125 2811.26 660.027 2811.38 665.748C2792.53 767.884 2726.11 823.047 2726.11 823.047C2740.38 755.478 2711.24 704.711 2658.78 661.773C2639.39 645.995 2601.27 616.005 2558.57 583.184C2558.57 583.184 2583.26 557.891 2605.25 506.883C2620.78 470.75 2621.44 429.438 2583.26 420.345C2520.27 405.29 2468.3 453.407 2452.82 504.776C2440.78 544.522 2447.22 574.03 2470.77 604.743C2472.46 606.972 2474.32 609.26 2476.19 611.549C2460.09 644.086 2443.32 676.291 2425.91 708.144C2379.96 790.768 2345.27 856.108 2319.01 856.108C2298.05 856.108 2298.36 789.804 2298.36 727.656C2298.36 674.119 2302.15 593.663 2305.22 510.256C2306.24 482.735 2292.94 467.017 2270.71 452.804C2257.22 444.132 2228.38 427.15 2211.7 427.15C2186.71 427.15 2114.62 430.703 2046.51 635.517C2037.9 661.292 2021.04 708.385 2021.04 708.385L2022.48 462.079C2022.48 456.297 2019.47 450.636 2012.73 446.843C2001.28 440.399 1970.57 427.15 1943.35 427.15C1930.34 427.15 1923.84 433.413 1923.84 445.939L1921.49 831.297C1921.49 860.565 1922.21 894.71 1925.04 909.645C1927.81 924.641 1932.27 936.745 1937.87 943.972C1943.2 951.689 1951.28 957.075 1960.45 959.027C1970.33 961.135 2024.35 968.361 2027.18 946.923C2030.55 921.148 2030.67 893.325 2059.04 789.564C2103.18 628.049 2160.81 549.279 2187.91 521.216C2192.61 516.398 2198.03 516.037 2197.73 524.047C2196.58 559.457 2192.55 647.983 2189.78 723.139C2182.43 924.339 2217.66 961.617 2268 961.617C2306.55 961.617 2360.75 921.87 2418.92 821.24C2451.35 765.122 2483.63 708.915 2515.76 652.62C2533.4 669.662 2553.15 687.91 2572.97 707.421C2618.86 752.768 2633.97 795.827 2623.97 836.717C2616.27 867.912 2587.48 900.13 2536.11 868.815C2521.18 859.722 2514.79 852.676 2499.74 842.318C2491.67 836.837 2479.32 835.151 2471.91 840.993C2452.7 856.048 2441.74 875.199 2435.48 898.866C2429.34 921.991 2451.62 934.156 2474.62 944.815C2494.5 953.968 2537.13 962.279 2564.35 963.243C2670.28 966.916 2755.2 910.067 2814.27 763.367C2824.87 890.073 2869.86 961.737 2948.09 961.737C3000.36 961.737 3052.87 891.519 3075.76 822.384C3082.38 850.568 3092.08 875.078 3104.66 895.734C3164.88 995.04 3281.83 973.661 3340.61 889.351C3358.74 863.335 3361.51 853.94 3361.51 853.94C3370.06 933.553 3431.73 961.376 3467.08 961.376C3506.58 961.376 3547.41 941.924 3576.08 874.958C3579.33 882.124 3583 889.05 3587.04 895.734C3647.32 995.04 3764.27 973.661 3822.99 889.351C3825.76 885.436 3828.16 881.823 3830.21 878.631L3832.02 930.904L3777.94 982.453C3687.31 1068.75 3618.41 1134.27 3613.35 1210.57C3606.91 1307.77 3682.73 1343.9 3740.18 1348.66C3801.13 1353.66 3853.4 1318.67 3885.44 1269.71C3913.68 1226.59 3932.17 1133.79 3930.78 1042.07C3930.24 1005.4 3929.34 958.726 3928.67 908.742C3966.11 863.651 3999.77 815.552 4029.3 764.933C4065.32 703.025 4103.86 619.859 4123.61 555.181C4123.61 555.181 4157.1 555.482 4192.87 553.013C4204.31 552.23 4207.5 554.639 4205.45 563.371C4202.86 573.91 4160.29 744.759 4199.13 858.517C4225.75 936.444 4285.79 961.496 4321.38 961.496C4362.93 961.496 4402.8 928.796 4424.18 880.197C4426.71 885.617 4429.42 890.917 4432.37 895.734C4492.59 994.979 4609.18 973.54 4668.32 889.351C4681.62 870.321 4689.21 853.94 4689.21 853.94C4701.86 936.263 4763.53 961.737 4798.82 961.737C4834.17 961.737 4870.48 946.08 4898.78 876.463C4899.99 907.116 4901.86 932.168 4904.81 940.057C4906.61 944.875 4917.03 950.957 4924.68 953.908C4958.28 966.856 4992.61 960.713 5005.32 958.124C5014.11 956.257 5020.97 948.91 5021.88 929.94C5024.29 880.257 5022.84 796.73 5037.35 734.641C5061.68 630.458 5084.33 590.11 5095.17 570.056C5101.19 558.855 5107.99 556.988 5108.23 568.851C5108.72 592.88 5109.86 663.339 5119.32 758.068C5126.24 827.684 5135.45 868.875 5142.56 881.883C5162.86 919.16 5187.91 920.907 5208.32 920.907C5221.33 920.907 5248.43 917.173 5246.02 893.446C5244.82 881.943 5246.92 810.521 5270.89 707.903C5286.55 640.816 5312.69 580.294 5322.08 558.132C5325.63 550.002 5327.2 556.446 5327.2 557.65C5325.21 603.84 5320.76 754.816 5338.82 837.38C5363.33 949.271 5434.27 961.737 5459.03 961.737C5511.78 961.737 5554.96 920.064 5569.47 810.22C5573.02 783.722 5567.85 763.367 5552.31 763.367L5552.25 763.427ZM3341.51 695.558C3338.5 753.671 3327.66 802.21 3310.14 837.5C3278.46 901.335 3215.77 921.629 3188.19 829.31C3168.26 762.825 3175.06 672.132 3183.37 623.051C3195.66 550.363 3226.43 498.754 3274.49 503.692C3323.87 508.69 3347.78 574.633 3341.51 695.558ZM3823.89 696.401C3821.12 751.263 3807.45 806.365 3792.51 837.5C3761.68 901.817 3697.24 921.931 3670.56 829.37C3652.32 766.137 3656.71 684.236 3665.75 632.686C3677.43 565.78 3705.85 503.692 3756.86 503.692C3806.49 503.692 3830.87 560.3 3823.89 696.401ZM3836.54 1070.74C3835.87 1170.83 3820.7 1258.63 3788.18 1284.1C3742.11 1320.24 3680.14 1293.14 3693.03 1220.09C3704.35 1155.47 3758.07 1089.41 3836.66 1008.77C3836.66 1008.77 3836.84 1027.14 3836.54 1070.74ZM4669.28 697.003C4666.57 757.225 4653.74 804.318 4637.78 837.5C4607.01 901.817 4542.99 921.81 4515.9 829.37C4501.08 778.965 4500.42 694.835 4511.08 624.556C4521.86 552.893 4552.09 498.814 4602.19 503.692C4651.57 508.509 4674.7 574.693 4669.22 697.003H4669.28Z" fill="#999999"/>
</g>
<path d="M405.111 607.576C404.643 580.69 409.534 553.98 419.498 529.005C429.463 504.029 444.301 481.288 463.148 462.108C481.994 442.928 504.472 427.693 529.268 417.292C554.065 406.891 580.685 401.532 607.575 401.528C634.465 401.524 661.086 406.875 685.886 417.269C710.686 427.662 733.168 442.891 752.02 462.065C770.872 481.239 785.718 503.976 795.689 528.949C805.661 553.921 810.56 580.629 810.101 607.515C809.185 660.616 787.448 711.231 749.573 748.459C711.697 785.687 660.714 806.548 607.606 806.548C554.497 806.548 503.514 785.687 465.639 748.459C427.763 711.231 406.026 660.616 405.111 607.515V607.576ZM295.568 607.576C295.568 690.309 328.433 769.654 386.935 828.156C445.436 886.658 524.782 919.523 607.515 919.523C690.249 919.523 769.594 886.658 828.096 828.156C886.597 769.654 919.463 690.309 919.463 607.576C919.463 524.842 886.597 445.497 828.096 386.995C769.594 328.494 690.249 295.628 607.515 295.628C524.782 295.628 445.436 328.494 386.935 386.995C328.433 445.497 295.568 524.842 295.568 607.576ZM859.001 283.222C859.001 302.564 866.684 321.113 880.361 334.79C894.038 348.467 912.587 356.15 931.929 356.15C951.271 356.15 969.82 348.467 983.497 334.79C997.174 321.113 1004.86 302.564 1004.86 283.222C1004.86 263.88 997.174 245.331 983.497 231.654C969.82 217.977 951.271 210.294 931.929 210.294C912.587 210.294 894.038 217.977 880.361 231.654C866.684 245.331 859.001 263.88 859.001 283.222ZM362.112 1102.05C302.854 1099.41 270.636 1089.53 249.257 1081.16C222.882 1071.41 199.016 1055.9 179.4 1035.75C159.189 1016.18 143.649 992.299 133.933 965.894C125.562 944.515 115.746 912.297 113.036 853.099C110.145 789.083 109.543 769.813 109.543 607.576C109.543 445.339 110.145 426.188 113.036 362.112C115.746 302.854 125.682 270.756 133.933 249.257C145.014 220.893 158.142 200.658 179.4 179.4C198.97 159.183 222.848 143.641 249.257 133.933C270.636 125.562 302.854 115.746 362.112 113.096C426.128 110.145 445.339 109.543 607.515 109.543C769.752 109.543 788.963 110.145 853.039 113.096C912.297 115.746 944.395 125.682 965.894 133.933C994.258 144.953 1014.43 158.142 1035.75 179.4C1057.01 200.658 1070.14 220.893 1081.16 249.257C1089.59 270.636 1099.34 302.854 1102.05 362.112C1105.01 426.188 1105.61 445.339 1105.61 607.576C1105.61 769.813 1105.01 789.023 1102.05 853.099C1099.34 912.297 1089.41 944.515 1081.16 965.954C1071.43 992.337 1055.91 1016.21 1035.75 1035.81C1014.49 1057.01 994.258 1070.14 965.894 1081.16C944.515 1089.59 912.297 1099.41 853.039 1102.05C789.023 1105.01 769.752 1105.61 607.576 1105.61C445.339 1105.61 426.128 1105.01 362.112 1102.05ZM357.054 3.73375C292.376 6.62439 248.173 16.9222 209.571 31.9174C169.042 47.1775 132.32 71.0766 101.955 101.955C71.0435 132.293 47.1393 169.022 31.9175 209.571C16.8621 248.233 6.62438 292.376 3.67352 357.114C0.662444 421.852 0 442.568 0 607.576C0 772.583 0.662444 793.239 3.67352 858.037C6.62438 922.715 16.9223 966.918 31.9175 1005.52C47.1515 1046.06 71.054 1082.79 101.955 1113.14C135.679 1146.86 169.584 1167.64 209.571 1183.17C248.233 1198.23 292.376 1208.47 357.114 1211.42C421.912 1214.31 442.568 1215.09 607.576 1215.09C772.522 1215.09 793.239 1214.43 858.037 1211.42C922.715 1208.47 966.858 1198.17 1005.52 1183.17C1046.04 1167.89 1082.76 1144 1113.14 1113.14C1146.86 1079.41 1167.64 1045.45 1183.17 1005.52C1198.23 966.918 1208.47 922.715 1211.36 858.037C1214.31 793.178 1214.97 772.522 1214.97 607.515C1214.97 442.568 1214.31 421.852 1211.36 357.054C1208.47 292.376 1198.17 248.233 1183.17 209.571C1167.89 169.051 1144 132.333 1113.14 101.955C1082.79 71.0586 1046.06 47.1567 1005.52 31.9174C966.858 16.862 922.715 6.62439 858.097 3.73375C793.299 0.782897 772.583 0 607.576 0C442.568 0 421.912 0.722675 357.054 3.73375Z" fill="#999999"/>
</svg>
