<svg width="5163" height="1291" viewBox="0 0 5163 1291" fill="none" xmlns="http://www.w3.org/2000/svg">
<path d="M1185.28 454.974C1241.29 454.974 1295.06 408.844 1304.4 351.995C1315.48 296.591 1277.48 250.582 1221.53 250.582C1165.53 250.582 1111.81 296.651 1102.3 351.995C1091.34 408.844 1127.77 454.974 1185.28 454.974ZM4986.41 619.379H5111.67C5128.89 619.379 5138.95 612.514 5142.8 596.675C5148.82 572.105 5154.97 547.655 5161.29 523.205C5164.96 508.932 5156.59 498.153 5140.57 498.153H5016.94C5025.85 463.104 5060.54 349.406 5060.54 275.333C5060.54 127.369 4933.35 1.44533 4752.87 1.44533C4549.08 1.44533 4416.47 136.583 4416.47 326.762C4416.47 382.287 4437.43 446.904 4463.38 487.012C4452.21 486.395 4441.03 486.094 4429.84 486.109C4274.95 486.109 4177.39 569.094 4177.39 689.898C4177.39 803.296 4267.84 847.317 4353 876.645C4428.63 902.721 4498.25 914.826 4498.25 973.241C4498.25 1012.57 4459.95 1035.69 4384.97 1035.69C4295.97 1035.69 4247.07 994.258 4234.6 978.54C4243.03 972.036 4255.62 956.439 4255.62 930.484C4255.62 894.17 4229.78 864.481 4181.85 864.481C4141.26 864.481 4106.93 897.181 4098.32 940.239C4033.16 992.933 3962.04 1027.02 3861.17 1027.02C3760.3 1027.02 3710.25 976.011 3710.25 867.371C3733.56 874.357 3794.2 882.788 3834.31 882.788C4002.51 882.788 4117.11 807.27 4117.11 656.054C4117.11 574.755 4044.84 489.36 3901.94 489.36H3901.64C3713.62 489.36 3608.36 606.973 3562.35 736.389C3549.46 733.378 3536.57 730.367 3523.68 727.477C3535.23 695.801 3541.2 662.366 3541.33 628.653C3541.33 564.698 3501.28 489.3 3394.09 489.3C3319.41 489.3 3248.59 537.658 3199.51 610.105L3220.35 529.287C3223.54 516.942 3218.3 503.151 3198.79 503.151H3088.76C3073.11 503.151 3062.03 508.571 3057.57 526.276L2980 827.264C2956.82 916.271 2836.92 1027.02 2686.12 1027.02C2586.82 1027.02 2535.33 972.639 2535.33 863.939C2561.34 874.176 2619.22 882.788 2659.26 882.788C2834.33 882.788 2942.12 807.27 2942.12 655.994C2942.12 574.694 2869.86 489.3 2726.95 489.3H2726.59C2514.97 489.3 2385.26 651.778 2363.34 835.996C2354.18 912.537 2288.78 1017.68 2217.9 1017.68C2183.33 1017.68 2164.06 996.246 2164.06 959.872C2164.06 928.436 2186.46 851.593 2211.04 755.239L2245.54 619.379H2360.63C2377.79 619.379 2387.85 612.514 2391.7 596.675C2397.24 573.851 2407.36 534.045 2410.19 523.205C2413.86 508.932 2405.55 498.153 2389.47 498.153H2276.38C2276.38 498.153 2328.47 292.797 2329.73 287.438C2334.73 266.541 2317.09 254.496 2298.54 258.351C2298.54 258.351 2211.1 275.273 2194.84 278.645C2178.58 281.897 2165.93 290.69 2159.97 313.935L2113.66 498.153H2022.78C2005.68 498.153 1995.62 505.018 1991.77 520.856C1985.72 545.375 1979.56 569.865 1973.28 594.327C1969.55 608.539 1977.92 619.379 1993.94 619.379H2083.06C2082.4 621.848 2050.85 740.484 2025.31 846.715C2013.33 897.783 1973.1 1017.26 1907.22 1017.26C1867.83 1017.26 1851.21 997.691 1851.21 955.596C1851.21 889.352 1917.21 723.442 1917.21 648.165C1917.21 547.595 1862.59 489.36 1750.76 489.36C1680.3 489.36 1607.19 534.346 1576.24 573.851C1576.24 573.851 1585.63 541.512 1588.83 529.107C1592.26 515.978 1585.15 503.091 1567.75 503.091H1458.39C1435.08 503.091 1428.64 515.376 1425.26 528.866L1346.55 833.948C1320.66 934.458 1257.79 1018.41 1190.58 1018.41C1156.01 1018.41 1140.6 997.028 1140.6 960.594C1140.6 929.159 1161.19 851.533 1185.76 755.239C1215.57 637.987 1241.95 541.452 1244.78 530.13C1248.39 515.677 1241.83 503.031 1223.04 503.031H1113.02C1093.14 503.031 1085.92 513.389 1081.76 527.722C1081.76 527.722 1050.81 643.588 1018.05 772.522C994.198 866.046 967.941 961.377 967.941 1006.18C967.941 1086.04 1004.19 1146.26 1104.04 1146.26C1181.13 1146.26 1242.07 1107.72 1288.62 1058.45L1277 1103.62C1272.96 1118.86 1277.84 1132.35 1295.97 1132.35H1408.52C1428.09 1132.35 1435.62 1124.52 1439.72 1107.66C1443.69 1091.52 1527.76 764.754 1527.76 764.754C1549.98 677.011 1604.97 618.897 1682.29 618.897C1718.9 618.897 1750.64 642.865 1746.97 689.477C1742.87 740.786 1680.3 925.064 1680.3 1005.88C1680.3 1067.13 1703.31 1146.32 1819.9 1146.32C1899.39 1146.32 1957.92 1108.68 2000.44 1060.08C2016.04 1111.63 2057.29 1146.32 2132.99 1146.32C2258.85 1146.32 2334.67 1072.61 2379.23 998.474C2416.21 1084.59 2502.81 1146.26 2629.76 1146.26C2685.88 1146.58 2741.47 1135.47 2793.16 1113.6C2844.84 1091.74 2891.53 1059.57 2930.38 1019.07L2908.22 1104.89C2904.19 1120.3 2911.05 1132.47 2929.36 1132.47H3040.77C3056.06 1132.47 3066.9 1124.82 3070.88 1108.98C3072.81 1101.15 3088.95 1039.73 3111.65 952.404C3155.13 785.229 3224.99 611.791 3330.01 611.791C3367.05 611.791 3382.22 632.266 3382.22 664.485C3382.22 679.661 3377.77 692.789 3373.91 699.835C3323.03 689.838 3282.08 714.71 3282.08 768.367C3282.08 803.356 3319.35 835.213 3369.64 835.213C3408.06 835.213 3439.8 825.879 3465.15 809.017C3490.08 814.075 3514.95 819.435 3539.82 825.036C3536 849.28 3534.02 873.781 3533.92 898.325C3533.92 1032.5 3630.88 1146.26 3804.68 1146.26C3940.84 1146.26 4034.3 1097 4114.94 1033.94C4153.72 1096.57 4251.64 1147.28 4380.1 1147.28C4556.12 1147.28 4655.97 1056.83 4655.97 937.289C4655.97 829.01 4566.06 789.204 4473.38 756.022C4397.98 729.163 4335.11 714.469 4335.11 661.895C4335.11 618.716 4369.5 599.024 4428.45 599.024C4466.63 599.024 4495.3 607.154 4510.66 611.369C4525.83 648.948 4557.27 690.561 4610.99 690.561C4656.39 690.561 4676.81 655.03 4676.81 622.39C4676.81 529.287 4519.87 519.592 4519.87 319.957C4519.87 195.901 4590.93 93.5241 4738.17 93.5241C4840.43 93.5241 4907.22 157.54 4907.22 260.94C4907.22 346.274 4854.82 498.093 4854.82 498.093H4765.94C4748.83 498.093 4738.72 504.958 4734.86 520.796C4728.84 545.306 4722.64 569.817 4716.31 594.266C4712.58 608.539 4721.01 619.319 4737.03 619.319H4823.87C4823.87 619.319 4734.14 946.563 4734.14 1006.06C4734.14 1085.98 4779.67 1146.2 4879.51 1146.2C5020.79 1146.2 5109.02 1055.5 5147.44 923.618C5150.45 913.381 5144.55 905.13 5134.07 905.13H5080.29C5069.57 905.13 5063.31 911.152 5060.6 921.571C5048.43 968.423 5018.26 1017.62 4958.83 1017.62C4924.32 1017.62 4905.05 996.185 4905.05 959.811C4905.05 928.376 4926.12 854.785 4952.02 755.179C4964.37 707.784 4986.35 619.319 4986.35 619.319L4986.41 619.379ZM3872.67 613.778C3922.65 613.778 3946.38 646.599 3946.38 685.743C3946.38 751.927 3894.41 792.335 3813.17 792.335C3781.39 791.69 3749.85 786.727 3719.4 777.581C3729.52 716.757 3774.09 613.778 3872.67 613.778ZM2697.75 613.778C2752.37 613.778 2771.34 646.599 2771.34 685.743C2771.34 751.927 2719.43 792.335 2638.25 792.335C2606.47 791.693 2574.92 786.73 2544.48 777.581C2554.48 716.757 2594.1 613.778 2697.75 613.778ZM536.092 0C179.701 0 0 252.509 0 463.104C0 590.593 48.7795 703.99 153.565 746.266C170.788 753.191 186.145 746.507 191.143 727.717C194.636 714.71 202.826 681.889 206.44 668.219C211.498 649.67 209.511 643.106 195.66 626.907C165.489 591.737 146.158 546.089 146.158 481.532C146.158 294.243 287.98 126.526 515.497 126.526C716.938 126.526 827.625 248.173 827.625 410.591C827.625 624.377 731.873 804.681 589.81 804.681C511.341 804.681 452.625 740.605 471.415 661.956C493.998 568.01 537.658 466.657 537.658 398.908C537.658 338.204 504.717 287.618 436.486 287.618C356.271 287.618 291.834 369.58 291.834 479.484C291.834 549.462 315.742 596.736 315.742 596.736L219.267 1000.7C190.601 1120.54 214.931 1267.48 216.978 1282.36C218.183 1291.15 229.625 1293.2 234.804 1286.57C242.211 1277.06 337.783 1160.53 370.302 1044.06C379.456 1011.06 423.057 840.272 423.057 840.272C449.072 889.412 525.253 932.712 606.311 932.712C847.438 932.712 1011 715.432 1011 424.683C1011 204.753 822.506 0 536.092 0Z" fill="#999999"/>
</svg>
