<svg width="5872" height="1142" viewBox="0 0 5872 1142" fill="none" xmlns="http://www.w3.org/2000/svg">
<path d="M598.242 1141.74C711.097 1141.74 795.468 1058.39 795.468 1058.39C802.875 1052.25 811.306 1046.23 811.306 1046.23C878.874 1001.73 988.357 1033.82 988.357 1033.82C1028.1 1043.28 1029.31 1013.11 1029.31 1013.11L1032.32 978.962C1035.33 945.479 1086.58 945.84 1086.58 945.84C1154.15 943.19 1182.63 915.428 1194.38 895.856C1206.9 877.067 1183.17 871.767 1183.17 871.767C1020.09 826.059 940.963 670.808 940.963 670.808C904.167 605.949 954.633 579.753 954.633 579.753C968.303 570.118 1035.15 548.016 1035.15 548.016C1090.31 525.855 1071.94 487.253 1071.94 487.253C1051.47 445.881 1003.71 473.462 1003.71 473.462C981.191 485.506 964.208 484.543 964.208 484.543C926.449 485.205 921.933 477.136 921.933 477.136L923.198 297.495C923.198 133.21 778.726 0 600.591 0H597.459C419.263 0 274.852 133.21 274.852 297.495L276.057 477.136C276.057 477.136 271.6 485.205 233.901 484.543C233.901 484.543 216.859 485.506 194.336 473.522C194.336 473.522 146.58 445.82 126.105 487.313C126.105 487.313 107.737 525.855 162.9 548.016C162.9 548.016 229.746 570.118 243.416 579.753C243.416 579.753 293.882 606.01 257.087 670.808C257.087 670.808 177.956 826.059 14.8755 871.767C14.8755 871.767 -8.91199 877.067 3.67432 895.856C15.4175 915.428 43.9023 943.19 111.471 945.84C111.471 945.84 162.719 945.479 165.67 978.962L168.681 1013.11C168.681 1013.11 169.886 1043.28 209.632 1033.82C209.632 1033.82 319.175 1001.73 386.684 1046.23C386.684 1046.23 395.115 1052.19 402.582 1058.39C402.582 1058.39 487.013 1141.74 599.808 1141.74H598.302H598.242ZM1548.24 675.445C1592.38 697.667 1691.99 731.451 1762.02 731.451C1837.48 731.451 1877.35 700.738 1877.35 654.247C1877.35 607.696 1842.84 584.39 1755.58 553.737C1634.9 512.546 1556.25 446.904 1556.25 343.323C1556.25 221.676 1659.71 128.633 1831.04 128.633C1912.88 128.633 1973.22 145.495 2016.34 164.586L2017.66 307.13C1988.58 293.4 1898.91 260.759 1827.79 260.759C1756.72 260.759 1722.22 292.556 1722.22 329.532C1722.22 375 1763.17 395.114 1856.87 430.042C1985.14 476.593 2045.49 542.115 2045.49 642.624C2045.49 762.104 1951.72 864.661 1752.39 864.661C1669.4 864.661 1587.5 842.44 1546.61 820.278L1548.24 675.445ZM3454.91 344.106V424.321C3485.32 367.833 3529.23 335.073 3623.83 335.073C3736.69 335.073 3825.46 422.575 3825.46 587.582C3825.46 775.835 3713.14 864.601 3598.24 864.601C3536.03 864.601 3487.49 839.308 3464.31 805.464L3452.68 790.288V1081.76H3301.95V345.25L3454.91 344.106ZM3452.02 634.675C3452.02 647.924 3453.17 659.968 3455.33 669.784C3466.29 714.83 3504.6 748.855 3552.77 748.855C3625.04 748.855 3667.8 688.453 3667.8 597.338C3667.8 511.703 3629.49 446.904 3555 446.904C3507.91 446.904 3466.29 482.074 3455.39 531.455C3453.14 541.189 3452.03 551.153 3452.08 561.145V634.675H3452.02ZM4315.12 841.175C4286.63 853.821 4232.85 865.504 4171.73 865.504C4005.16 865.504 3898.63 766.801 3898.63 603.962C3898.63 452.746 4001.97 335.374 4193.89 335.374C4236.05 335.374 4282.42 342.721 4316.14 355.428L4315.36 478.581C4284.95 460.514 4243.45 452.686 4201.24 452.686C4105.91 452.686 4054.12 513.028 4055.2 597.639C4055.2 692.789 4108.14 742.532 4204.43 742.532C4242.37 742.532 4290.01 724.164 4314.21 713.565L4315.12 841.175ZM4720.11 335.133C4847.84 335.133 4901.8 394.752 4900.41 550.606V853.039H4743.71V568.552C4743.71 500.863 4716.98 454.311 4656.81 454.311C4614.66 454.311 4584.37 481.833 4572.81 510.318C4568.59 520.917 4567.51 534.707 4567.51 546.33V853.039H4417.25V102.196H4568.89V420.166C4617.73 329.954 4720.11 335.133 4720.11 335.133ZM5756.64 195.238V346.394H5871.54V462.863H5756.58V652.862C5756.58 720.431 5767.84 743.797 5819.81 743.797C5841.98 743.797 5851.49 742.773 5867.27 739.581L5868.35 849.907C5847.27 858.338 5809.34 864.661 5763.93 864.661C5712.32 864.661 5673.84 845.631 5648.54 819.254C5619.03 788.541 5604.28 738.858 5604.28 665.87V462.923H5526.29V346.455H5604.28V238.658L5756.64 195.238ZM2449.33 324.293C2373.94 324.293 2323.47 361.39 2297.21 392.645V333.929H2138.47V466.055C2138.23 477.376 2138.11 488.939 2138.11 500.923V853.099H2138.47V853.581L2138.71 853.099H2301.91V554.882C2301.91 540.067 2304.08 525.253 2308.35 514.654C2319.13 485.085 2346.05 454.432 2391.34 454.432C2450.6 454.432 2474.26 499.839 2474.26 566.444V853.099H2638.07V546.39C2638.07 394.09 2573.75 324.293 2449.45 324.293H2449.33ZM3174.58 853.641V547.414C3174.58 425.767 3120.56 324.293 2948.75 324.293C2864.44 324.293 2799.04 344.769 2760.62 363.437V486.53C2795.55 465.633 2868.78 439.738 2920.21 439.738C2999.28 439.738 3016.2 493.817 3016.2 521.278V528.685C2833.73 527.601 2711.48 571.744 2711.48 706.038C2711.48 788.541 2773.63 864.661 2878.05 864.661C2939.17 864.661 2991.87 842.44 3025.59 801.248H3028.78L3027.64 853.039H3147L3174.58 853.641ZM3014.33 670.808C3014.33 680.263 3013.25 689.718 3011.08 698.088C3000.24 730.608 2966.58 756.865 2925.38 756.865C2888.53 756.865 2860.34 736.992 2860.34 696.041C2860.34 634.073 2927.55 614.14 3014.33 615.224V670.808ZM5448.49 853.581V547.414C5448.49 425.767 5394.47 324.293 5222.66 324.293C5138.35 324.293 5072.95 344.769 5034.52 363.437V486.53C5069.45 465.633 5142.68 439.738 5194.11 439.738C5273.18 439.738 5290.1 493.817 5290.1 521.278V528.685C5107.63 527.601 4985.38 571.744 4985.38 706.038C4985.38 788.541 5047.59 864.661 5151.96 864.661C5213.08 864.661 5265.78 842.44 5299.5 801.248H5302.69L5301.55 853.039H5420.91L5448.43 853.641L5448.49 853.581ZM5288.24 670.808C5288.24 680.263 5287.15 689.718 5284.99 698.088C5274.15 730.608 5240.48 756.865 5199.29 756.865C5162.43 756.865 5134.25 736.992 5134.25 696.041C5134.25 634.073 5201.46 614.14 5288.24 615.224V670.808Z" fill="#999999"/>
</svg>
