<svg width="5571" height="1734" viewBox="0 0 5571 1734" fill="none" xmlns="http://www.w3.org/2000/svg">
<path d="M866.588 0C388.068 0 0 388.008 0 866.589C0 1345.23 388.008 1733.3 866.588 1733.3C1345.23 1733.3 1733.3 1345.29 1733.3 866.649C1733.3 387.947 1345.29 0 866.588 0ZM1264.05 1249.9C1260.36 1255.96 1255.51 1261.23 1249.78 1265.41C1244.05 1269.6 1237.55 1272.61 1230.65 1274.28C1223.76 1275.96 1216.6 1276.25 1209.59 1275.16C1202.58 1274.06 1195.86 1271.6 1189.8 1267.91C986.249 1143.49 730.126 1115.42 428.477 1184.32C421.48 1186.14 414.187 1186.54 407.032 1185.5C399.877 1184.45 393.005 1181.98 386.823 1178.23C380.64 1174.48 375.274 1169.53 371.042 1163.66C366.81 1157.8 363.798 1151.15 362.185 1144.1C360.572 1137.05 360.391 1129.75 361.652 1122.63C362.913 1115.51 365.591 1108.71 369.526 1102.65C373.462 1096.58 378.576 1091.37 384.564 1087.31C390.552 1083.26 397.294 1080.45 404.388 1079.05C734.523 1003.59 1017.74 1036.05 1246.17 1175.65C1271.58 1191.3 1279.65 1224.49 1264.05 1249.96V1249.9ZM1370.16 1013.95C1360.78 1029.23 1345.72 1040.16 1328.28 1044.34C1310.85 1048.52 1292.47 1045.6 1277.18 1036.23C1044.3 893.086 689.176 851.593 413.602 935.241C396.448 940.438 377.933 938.612 362.125 930.166C346.316 921.72 334.507 907.343 329.292 890.195C324.113 873.05 325.948 854.55 334.393 838.756C342.838 822.961 357.203 811.161 374.337 805.945C689.115 710.434 1080.38 756.744 1347.88 921.089C1379.68 940.661 1389.67 982.214 1370.16 1013.95ZM1379.19 768.247C1099.89 602.336 639.071 587.1 372.41 668.038C362.182 671.279 351.411 672.457 340.724 671.504C330.037 670.55 319.645 667.484 310.151 662.484C300.658 657.484 292.252 650.648 285.42 642.374C278.589 634.1 273.468 624.552 270.355 614.284C267.242 604.016 266.198 593.232 267.285 582.557C268.371 571.883 271.566 561.53 276.685 552.1C281.803 542.669 288.743 534.349 297.101 527.621C305.46 520.893 315.071 515.892 325.377 512.907C631.483 419.985 1140.42 437.931 1461.94 628.834C1480 640.005 1492.96 657.818 1498.02 678.442C1503.08 699.066 1499.85 720.854 1489.02 739.12C1478.18 757.386 1460.62 770.671 1440.09 776.117C1419.56 781.564 1397.66 778.738 1379.19 768.247ZM2357.8 800.044C2208.2 764.393 2181.53 739.34 2181.53 686.707C2181.53 636.964 2228.38 603.541 2298 603.541C2367.55 603.541 2432.35 628.954 2502.51 681.227C2504.62 682.792 2507.33 683.455 2509.91 683.033C2511.2 682.84 2512.44 682.388 2513.54 681.705C2514.65 681.022 2515.61 680.122 2516.36 679.058L2589.41 576.08C2590.87 574.042 2591.5 571.522 2591.16 569.036C2590.83 566.549 2589.55 564.286 2587.6 562.71C2504.07 495.744 2410.07 463.164 2300.16 463.164C2138.59 463.164 2025.79 560.121 2025.79 698.871C2025.79 847.619 2123.11 900.313 2291.37 940.962C2434.52 973.903 2458.67 1001.55 2458.67 1050.93C2458.67 1105.73 2409.83 1139.69 2331.18 1139.69C2243.86 1139.69 2172.61 1110.31 2092.88 1041.29C2091.9 1040.44 2090.76 1039.79 2089.52 1039.39C2088.28 1038.98 2086.98 1038.83 2085.68 1038.93C2084.39 1039.04 2083.13 1039.41 2081.97 1040.01C2080.82 1040.61 2079.8 1041.43 2078.97 1042.44L1997.07 1139.87C1995.4 1141.81 1994.57 1144.33 1994.75 1146.88C1994.93 1149.43 1996.11 1151.8 1998.03 1153.48C2090.77 1236.29 2204.83 1279.95 2327.86 1279.95C2501.97 1279.95 2614.52 1184.8 2614.52 1037.62C2614.76 913.32 2540.39 844.487 2358.1 800.164L2357.8 800.044ZM3008.37 652.501C2932.91 652.501 2871 682.19 2819.94 743.134V674.482C2819.94 671.889 2818.91 669.401 2817.08 667.562C2815.25 665.723 2812.77 664.682 2810.18 664.666H2676.19C2673.58 664.666 2671.09 665.7 2669.25 667.541C2667.4 669.382 2666.37 671.878 2666.37 674.482V1436.28C2666.37 1441.7 2670.77 1446.1 2676.19 1446.1H2810.18C2815.6 1446.1 2819.94 1441.7 2819.94 1436.28V1195.88C2871 1253.15 2932.91 1281.15 3008.37 1281.15C3148.56 1281.15 3290.51 1173.24 3290.51 966.857C3290.75 760.478 3148.75 652.501 3008.49 652.501H3008.37ZM3134.71 966.857C3134.71 1071.88 3069.98 1145.23 2977.29 1145.23C2884.61 1145.23 2816.56 1068.57 2816.56 966.797C2816.56 865.023 2885.7 788.421 2977.35 788.421C3068.47 788.421 3134.71 863.457 3134.71 966.857ZM3654.31 652.501C3473.76 652.501 3332.3 791.552 3332.3 969.086C3332.3 1146.62 3472.74 1282.24 3652.08 1282.24C3831.42 1282.24 3975.23 1143.73 3975.23 966.797C3975.23 789.987 3834.31 652.501 3654.31 652.501ZM3654.31 1146.26C3558.25 1146.26 3485.87 1069.11 3485.87 966.797C3485.87 864.421 3555.72 789.445 3652.08 789.445C3748.43 789.445 3821.66 866.649 3821.66 969.025C3821.66 1071.4 3751.26 1146.26 3654.31 1146.26ZM4360.83 664.726H4213.4V513.991C4213.4 511.388 4212.37 508.891 4210.53 507.05C4208.69 505.209 4206.19 504.175 4203.59 504.175H4069.65C4067.05 504.175 4064.55 505.209 4062.71 507.05C4060.87 508.891 4059.84 511.388 4059.84 513.991V664.726H3995.4C3992.81 664.742 3990.33 665.783 3988.5 667.622C3986.67 669.461 3985.64 671.949 3985.64 674.542V789.686C3985.64 795.106 3989.98 799.502 3995.4 799.502H4059.84V1097.48C4059.84 1217.92 4119.76 1278.93 4237.91 1278.93C4285.97 1278.93 4325.84 1268.99 4363.47 1247.73C4364.98 1246.87 4366.24 1245.63 4367.11 1244.13C4367.97 1242.62 4368.43 1240.92 4368.41 1239.18V1129.58C4368.43 1127.9 4368.01 1126.24 4367.2 1124.77C4366.39 1123.3 4365.21 1122.06 4363.79 1121.17C4362.36 1120.28 4360.73 1119.77 4359.05 1119.69C4357.37 1119.62 4355.7 1119.97 4354.2 1120.72C4329.91 1133.35 4302.92 1139.88 4275.55 1139.75C4232.55 1139.75 4213.4 1120.24 4213.4 1076.52V799.562H4360.83C4366.25 799.562 4370.58 795.166 4370.58 789.746V674.602C4370.62 673.317 4370.4 672.037 4369.93 670.84C4369.47 669.643 4368.76 668.552 4367.86 667.635C4366.96 666.717 4365.88 665.992 4364.7 665.502C4363.51 665.013 4362.23 664.769 4360.95 664.786L4360.83 664.726ZM4874.52 665.328V646.84C4874.52 592.339 4895.41 568.07 4942.26 568.07C4970.21 568.07 4992.61 573.611 5017.72 581.981C5019.2 582.467 5020.77 582.596 5022.3 582.358C5023.84 582.119 5025.29 581.519 5026.55 580.608C5027.81 579.697 5028.83 578.5 5029.54 577.116C5030.24 575.732 5030.61 574.2 5030.61 572.647V459.732C5030.61 457.631 5029.94 455.584 5028.69 453.893C5027.45 452.202 5025.69 450.956 5023.68 450.337C4987.59 439.313 4950.01 433.911 4912.27 434.318C4788.58 434.318 4723.18 503.994 4723.18 635.759V664.124H4658.74C4656.15 664.155 4653.68 665.201 4651.86 667.037C4650.03 668.873 4649 671.352 4648.99 673.94V789.686C4648.99 795.106 4653.38 799.502 4658.8 799.502H4723.18V1259.11C4723.18 1264.53 4727.51 1268.93 4732.93 1268.93H4866.93C4872.35 1268.93 4876.74 1264.53 4876.74 1259.11V799.562H5001.82L5193.45 1259.05C5171.77 1307.29 5150.33 1316.87 5121.12 1316.87C5097.52 1316.87 5072.64 1309.82 5047.23 1295.97C5046.05 1295.32 5044.74 1294.91 5043.4 1294.78C5042.05 1294.65 5040.69 1294.78 5039.4 1295.19C5038.13 1295.63 5036.96 1296.33 5035.96 1297.24C5034.97 1298.15 5034.17 1299.25 5033.62 1300.48L4988.21 1400.15C4987.18 1402.4 4987.04 1404.96 4987.82 1407.31C4988.61 1409.66 4990.25 1411.62 4992.43 1412.8C5039.88 1438.45 5082.64 1449.41 5135.58 1449.41C5234.46 1449.41 5289.14 1403.34 5337.32 1279.35L5569.77 678.757C5570.36 677.276 5570.58 675.674 5570.41 674.09C5570.23 672.506 5569.68 670.987 5568.79 669.665C5567.9 668.343 5566.7 667.257 5565.3 666.502C5563.9 665.746 5562.33 665.343 5560.74 665.328H5421.27C5419.22 665.326 5417.21 665.963 5415.54 667.15C5413.87 668.337 5412.61 670.016 5411.93 671.952L5269.09 1080.07L5112.57 671.651C5111.86 669.795 5110.61 668.197 5108.98 667.068C5107.34 665.939 5105.4 665.332 5103.42 665.328H4874.52ZM4576.72 664.726H4442.73C4440.12 664.726 4437.63 665.76 4435.79 667.601C4433.94 669.442 4432.91 671.939 4432.91 674.542V1259.11C4432.91 1264.53 4437.31 1268.93 4442.73 1268.93H4576.72C4582.14 1268.93 4586.54 1264.53 4586.54 1259.11V674.602C4586.54 671.999 4585.5 669.502 4583.66 667.661C4581.82 665.82 4579.32 664.726 4576.72 664.726ZM4510.48 398.546C4497.85 398.531 4485.35 401.001 4473.69 405.817C4462.02 410.632 4451.41 417.699 4442.48 426.612C4433.54 435.526 4426.45 446.113 4421.6 457.768C4416.76 469.423 4414.26 481.918 4414.24 494.54C4414.23 507.161 4416.7 519.663 4421.51 531.33C4426.33 542.997 4433.39 553.601 4442.31 562.538C4451.22 571.474 4461.81 578.567 4473.46 583.411C4485.12 588.256 4497.61 590.758 4510.23 590.774C4535.73 590.814 4560.19 580.726 4578.24 562.729C4596.29 544.733 4606.46 520.302 4606.5 494.811C4606.54 469.32 4596.45 444.857 4578.45 426.804C4560.46 408.751 4535.97 398.586 4510.48 398.546Z" fill="#999999"/>
</svg>
