<svg width="5142" height="1504" viewBox="0 0 5142 1504" fill="none" xmlns="http://www.w3.org/2000/svg">
<path d="M982.636 542.776C1082.66 614.58 1202.71 653.131 1325.84 652.982V405.893C1301.63 405.893 1277.48 403.303 1253.69 398.305V592.76C1130.57 592.926 1010.5 554.373 910.491 482.555V986.73C910.491 1238.94 706.701 1443.39 455.336 1443.39C365.053 1443.53 276.795 1416.64 201.924 1366.19C244.209 1409.73 294.811 1444.33 350.726 1467.93C406.64 1491.54 466.728 1503.67 527.421 1503.61C778.907 1503.61 982.697 1299.16 982.697 1046.95L982.636 542.776ZM1071.58 293.579C1020.67 237.915 989.425 167.087 982.636 91.9575V60.2207H914.285C922.665 107.961 940.989 153.407 968.067 193.609C995.145 233.811 1030.37 267.871 1071.46 293.579H1071.58ZM360.849 1172.69C333.2 1136.34 318.281 1091.9 318.392 1046.23C318.366 1013.45 326.067 981.124 340.871 951.877C355.675 922.63 377.165 897.284 403.598 877.897C430.03 858.51 460.661 845.626 493.004 840.292C525.347 834.958 558.493 837.323 589.751 847.196V594.567C565.891 591.27 541.808 589.86 517.726 590.351V786.975C486.46 777.079 453.302 774.696 420.943 780.019C388.583 785.342 357.936 798.221 331.488 817.611C305.04 837.001 283.538 862.355 268.727 891.614C253.916 920.873 246.214 953.213 246.247 986.007C246.247 1067.61 292.919 1138.19 360.849 1172.69Z" fill="#999999"/>
<path d="M910.429 482.675C1010.45 554.479 1130.51 593.03 1253.63 592.881V398.365C1183.45 383.299 1119.73 346.661 1071.4 293.579C1030.31 267.865 995.092 233.803 968.014 193.602C940.937 153.402 922.61 107.959 914.223 60.2207H734.762V1047.07C734.651 1102.26 712.671 1155.15 673.638 1194.16C634.605 1233.17 581.701 1255.12 526.516 1255.2C494.399 1255.2 462.718 1247.76 433.963 1233.45C405.207 1219.15 380.159 1198.37 360.786 1172.75C326.307 1155.3 297.342 1128.63 277.111 1095.71C256.879 1062.78 246.174 1024.89 246.185 986.248C246.143 953.449 253.838 921.102 268.644 891.835C283.451 862.568 304.952 837.206 331.401 817.81C357.85 798.413 388.502 785.528 420.866 780.202C453.23 774.875 486.393 777.258 517.664 787.155V590.592C270.695 595.711 72.024 798.116 72.024 1047.13C71.8329 1166.45 118.426 1281.08 201.802 1366.43C276.679 1416.86 364.933 1443.75 455.214 1443.63C706.699 1443.63 910.429 1239.12 910.429 986.971V482.615V482.675Z" fill="#999999"/>
<path d="M1253.63 398.306V345.672C1189.21 345.706 1126.08 327.613 1071.46 293.46C1119.78 346.527 1183.47 383.164 1253.63 398.245V398.306ZM914.224 60.1011C912.605 50.7173 911.34 41.2759 910.43 31.797V0H662.739V986.851C662.612 1042.02 640.635 1094.89 601.618 1133.9C562.602 1172.9 509.722 1194.87 454.553 1194.98C422.016 1195.06 389.923 1187.42 360.908 1172.69C380.281 1198.31 405.329 1219.09 434.085 1233.39C462.84 1247.7 494.521 1255.14 526.638 1255.14C581.829 1255.04 634.732 1233.08 673.764 1194.06C712.795 1155.04 734.773 1102.14 734.884 1046.95V60.1011H914.345H914.224ZM517.665 590.412V534.406C496.993 531.531 476.147 530.083 455.275 530.07C203.79 530.07 0.000354394 734.522 0.000354394 986.73C-0.0930082 1061.68 18.2618 1135.5 53.4452 1201.67C88.6286 1267.85 139.559 1324.35 201.743 1366.19C118.381 1280.85 71.7898 1166.24 71.9651 1046.95C71.9651 797.936 270.576 595.531 517.605 590.412H517.665ZM4124.21 1236.77C4304.04 1236.77 4449.95 1091.64 4449.95 912.538C4449.95 733.439 4304.04 588.244 4124.15 588.244H4075.13C4255.02 588.244 4400.93 733.378 4400.93 912.538C4400.93 1091.58 4255.02 1236.77 4075.13 1236.77H4124.21ZM4070.62 588.124H4021.54C3841.72 588.124 3695.8 733.318 3695.8 912.417C3695.8 1091.52 3841.72 1236.65 4021.6 1236.65H4070.62C3890.68 1236.65 3744.88 1091.52 3744.88 912.417C3744.88 733.318 3890.68 588.124 4070.62 588.124ZM1594.19 441.665V605.949H1785.93V1232.25H1977.86V610.346H2134.07L2187.61 441.545H1594.19V441.605V441.665ZM3164.82 441.665V605.949H3356.63V1232.25H3548.5V610.346H3704.71L3758.31 441.545H3164.82V441.605V441.665ZM2223.32 534.828C2223.32 483.338 2265.23 441.545 2316.97 441.545C2368.7 441.545 2410.73 483.338 2410.73 534.888C2410.73 586.317 2368.82 628.111 2316.97 628.111C2304.69 628.135 2292.53 625.741 2281.18 621.066C2269.84 616.391 2259.52 609.526 2250.82 600.864C2242.13 592.202 2235.22 581.912 2230.5 570.581C2225.79 559.251 2223.34 547.102 2223.32 534.828ZM2223.32 694.776H2410.61V1232.31H2223.32V694.776ZM2491.01 441.545V1232.37H2678.42V1028.04L2736.47 974.686L2919.36 1236.77H3120.14L2856.85 854.785L3093.34 623.775H2865.7L2678.29 810.342V441.605H2490.89H2491.01V441.545ZM4512.4 441.545V1232.37H4699.81V1028.04L4757.75 974.686L4940.82 1236.77H5141.54L4878.25 854.785L5114.74 623.775H4887.1L4699.69 810.342V441.605H4512.34H4512.46L4512.4 441.545Z" fill="#999999"/>
<path d="M4075.19 1236.77C4255.08 1236.77 4400.99 1091.64 4400.99 912.541C4400.99 733.442 4255.08 588.248 4075.19 588.248H4070.74C3890.86 588.248 3744.94 733.382 3744.94 912.541C3744.94 1091.58 3890.86 1236.77 4070.74 1236.77H4075.19ZM3914.52 912.541C3914.62 870.626 3931.36 830.464 3961.06 800.888C3990.76 771.311 4030.99 754.741 4072.91 754.821C4093.67 754.765 4114.24 758.801 4133.45 766.698C4152.65 774.595 4170.11 786.198 4184.83 800.845C4199.55 815.491 4211.24 832.894 4219.23 852.059C4227.22 871.225 4231.36 891.777 4231.41 912.541C4231.36 933.298 4227.23 953.842 4219.24 973C4211.25 992.158 4199.56 1009.55 4184.85 1024.19C4170.14 1038.84 4152.68 1050.43 4133.48 1058.33C4114.29 1066.22 4093.72 1070.26 4072.97 1070.2C4031.06 1070.28 3990.84 1053.72 3961.14 1024.16C3931.44 994.592 3914.64 954.446 3914.52 912.541Z" fill="#999999"/>
</svg>
