<svg width="5180" height="1083" viewBox="0 0 5180 1083" fill="none" xmlns="http://www.w3.org/2000/svg">
<path d="M418.961 1082.65C921.691 1082.65 1196.6 666.334 1196.6 305.185C1196.6 293.381 1196.36 281.638 1195.82 269.955C1249.31 231.256 1295.48 183.333 1332.16 128.434C1282.29 150.534 1229.39 165.028 1175.22 171.433C1232.28 137.285 1274.98 83.5651 1295.37 20.2765C1241.77 52.1939 1183.05 74.5963 1121.81 86.6407C1080.67 42.6515 1026.16 13.4802 966.734 3.65911C907.313 -6.16203 846.311 3.91683 793.207 32.3297C740.103 60.7427 697.869 105.899 673.067 160.783C648.266 215.666 642.285 277.205 656.054 335.838C547.386 330.404 441.076 302.183 344.02 253.007C246.964 203.831 161.332 134.798 92.681 50.3873C68.421 92.0766 55.6612 139.458 55.7049 187.692C55.7049 282.481 103.942 366.189 177.353 415.149C133.938 413.819 91.4773 402.088 53.537 380.943V384.436C53.552 447.523 75.3881 508.662 115.342 557.485C155.295 606.307 210.907 639.807 272.743 652.302C232.503 663.233 190.297 664.819 149.35 656.939C166.799 711.256 200.796 758.757 246.581 792.793C292.366 826.83 347.648 845.698 404.689 846.757C307.862 922.73 188.294 963.923 65.2199 963.708C43.1789 963.708 21.3787 962.443 0 959.914C124.98 1040.19 270.423 1082.79 418.961 1082.65ZM1630.32 256.104H1793.88V396.3H1918.18V523.247H1793.88V763.893C1793.88 789.065 1800.2 806.469 1812.73 816.225C1825.38 825.981 1844.53 830.799 1870.36 830.799C1887.38 830.712 1904.4 830.009 1921.37 828.691V950.338C1890.93 954.761 1860.23 957.055 1829.47 957.204C1781.29 957.204 1742.27 951.784 1712.34 941.004C1682.41 930.164 1660.61 912.821 1647 888.672C1633.39 864.583 1626.52 832.906 1626.52 793.642V523.247H1540.05V396.3H1630.32V256.104ZM2696.36 955.096H2518.35L2421.15 571.605H2415.85L2320.22 955.096H2140.76L1993.64 387.809H2168.34L2239.52 788.884H2246.45L2339.91 387.809H2498.17L2593.8 788.884H2600.73L2672.99 387.809H2841.37L2696.36 955.096ZM2958.2 163.664C2976.63 148.067 3001.02 140.298 3031.49 140.298C3061.91 140.298 3085.93 148.127 3104.48 163.664C3123.09 179.322 3132.36 199.978 3132.36 225.813C3132.36 251.708 3123.15 271.762 3104.78 287.179C3086.36 302.595 3061.91 310.304 3031.49 310.304C3001.02 310.304 2977.05 302.595 2958.44 287.179C2939.9 271.762 2930.56 251.286 2930.56 225.813C2930.56 200.339 2939.78 179.261 2958.2 163.664ZM2947.06 387.869H3116.47V955.156H2947.06V387.869ZM3318.81 256.104H3482.43V396.3H3606.73V523.247H3482.43V763.893C3482.43 789.065 3488.7 806.469 3501.28 816.225C3513.87 825.981 3533.08 830.799 3558.91 830.799C3569.15 830.799 3579.03 830.558 3588.42 830.016C3595.59 829.64 3602.76 829.199 3609.92 828.691V950.338C3579.49 954.759 3548.78 957.053 3518.02 957.204C3469.85 957.204 3430.82 951.784 3400.89 941.004C3370.9 930.164 3349.1 912.821 3335.55 888.672C3321.88 864.583 3315.08 832.906 3315.08 793.642V523.247H3228.48V396.3H3318.81V256.104ZM3779.93 256.104H3943.49V396.3H4067.79V523.247H3943.49V763.893C3943.49 789.065 3949.75 806.469 3962.34 816.225C3974.93 825.981 3994.14 830.799 4019.97 830.799C4036.99 830.69 4054.01 829.987 4070.98 828.691V950.338C4040.54 954.774 4009.84 957.068 3979.08 957.204C3930.9 957.204 3891.88 951.784 3861.95 941.004C3832.02 930.164 3810.22 912.821 3796.61 888.672C3782.94 864.583 3776.13 832.906 3776.13 793.642V523.247H3689.66V396.3H3779.99L3779.93 256.104ZM4294.88 935.705C4254.89 916.234 4221.87 884.899 4200.33 845.974C4177.81 806.108 4166.61 756.847 4166.61 698.01V643.811C4166.61 584.673 4178.35 535.412 4201.9 495.906C4224.12 457.662 4257.11 426.809 4296.75 407.2C4336.38 387.508 4380.28 377.692 4428.45 377.692C4479.82 377.692 4524.93 388.351 4563.95 409.609C4602.86 430.867 4633.33 461.399 4655.25 501.146C4677.23 541.012 4688.19 588.588 4688.19 643.871V706.501H4331.26V732.517C4331.26 765.097 4341.07 791.233 4360.76 810.805C4380.4 830.498 4405.27 840.314 4435.38 840.314C4452.3 840.314 4467.66 837.784 4481.27 832.666C4494.88 827.487 4505.96 820.32 4514.45 811.106C4522.65 802.54 4527.87 791.558 4529.33 779.791H4684.46C4682.83 800.992 4677.32 821.712 4668.2 840.916C4657.49 863.849 4642.46 884.501 4623.93 901.74C4604.06 920.649 4578.65 936.066 4547.69 947.93C4516.74 959.793 4479.4 965.755 4435.86 965.755C4382.38 965.755 4335.41 955.698 4294.82 935.765L4294.88 935.705ZM4526.19 611.472V607.738C4526.62 588.126 4522.54 568.677 4514.27 550.889C4506.85 535.22 4495.16 521.964 4480.55 512.648C4465.24 503.207 4447.52 498.396 4429.54 498.797C4411.48 498.425 4393.7 503.231 4378.29 512.648C4363.46 521.964 4351.5 535.199 4343.72 550.889C4335.41 567.149 4331.26 586.179 4331.26 607.738V611.472H4526.19ZM4817.24 387.869H4986.65V477.599H4994.6C4999.22 462.434 5006.41 448.176 5015.85 435.444C5026.51 420.389 5041.15 407.381 5059.94 396.3C5078.73 385.4 5101.73 379.86 5129.01 379.86C5141.06 379.86 5151.11 380.221 5159.3 380.943C5167.43 381.666 5174.36 382.871 5179.96 384.677V528.607C5171.49 525.995 5162.77 524.299 5153.94 523.548C5141.94 522.287 5129.88 521.684 5117.81 521.742C5088.78 521.742 5064.94 526.921 5046.15 537.399C5027.96 547.228 5013.42 562.668 5004.71 581.421C4995.49 602.22 4990.97 624.797 4991.47 647.544V955.096H4817.18V387.809L4817.24 387.869Z" fill="#999999"/>
</svg>
