<svg width="4891" height="1092" viewBox="0 0 4891 1092" fill="none" xmlns="http://www.w3.org/2000/svg">
<path d="M1527.34 170.487C1518.42 137.432 1500.98 107.295 1476.77 83.0852C1452.56 58.8754 1422.43 41.44 1389.37 32.5196C1267.72 -3.58949e-06 779.93 0 779.93 0C779.93 0 292.376 2.15369e-05 170.487 32.5799C137.437 41.4765 107.302 58.8976 83.0999 83.0999C58.8977 107.302 41.4765 137.437 32.5799 170.487C2.15369e-05 292.135 0 545.969 0 545.969C0 545.969 -3.58949e-06 799.863 32.5196 921.39C41.44 954.445 58.8754 984.583 83.0852 1008.79C107.295 1033 137.432 1050.44 170.487 1059.36C292.376 1091.88 779.93 1091.88 779.93 1091.88C779.93 1091.88 1267.72 1091.88 1389.37 1059.36C1422.42 1050.43 1452.54 1032.99 1476.74 1008.78C1500.94 984.57 1518.36 954.438 1527.28 921.39C1559.86 799.743 1559.86 545.969 1559.86 545.969C1559.86 545.969 1559.86 292.014 1527.34 170.487Z" fill="#999999"/>
<path d="M624.074 312.016V779.998L1029.37 545.977L624.074 311.956V312.016Z" fill="#101010"/>
<path d="M2516.72 347.469C2486.19 326.632 2445.72 316.153 2395.07 316.153C2344.49 316.153 2302.33 326.632 2270.78 346.927C2239.28 367.282 2215.97 399.801 2201.04 444.486C2186.16 489.17 2178.64 548.247 2178.64 621.898V721.143C2178.64 794.072 2185.32 852.426 2198.27 896.388C2211.22 940.35 2233.26 972.569 2264.03 993.405C2294.8 1014.24 2337.5 1024.72 2391.58 1024.36C2444.39 1024.36 2486.43 1013.94 2517.2 993.586C2548.22 973.231 2570.56 940.772 2584.17 896.569C2597.84 852.366 2604.76 793.831 2604.76 720.842V621.537C2604.76 548.067 2597.78 489.049 2583.69 444.907C2569.53 400.765 2547.25 368.245 2516.72 347.348V347.469ZM2449.93 777.089C2449.93 827.435 2445.48 863.808 2436.99 886.211C2428.38 908.493 2413.5 919.694 2391.58 919.694C2369.72 919.694 2355.15 908.553 2346.9 886.211C2338.77 864.17 2334.79 827.675 2334.79 777.029V563.845C2334.79 514.704 2339.25 478.752 2347.74 456.169C2356.41 433.585 2371.1 422.143 2391.94 422.143C2412.78 422.143 2428.68 433.585 2437.11 456.169C2445.78 479.053 2450.05 514.824 2450.05 563.905V777.089H2449.93ZM2947.91 873.022C2941.94 885.669 2932.73 896.147 2920.63 904.337C2909.29 912.156 2895.85 916.355 2882.08 916.382C2866.49 916.382 2855.35 909.757 2848.66 896.81C2842.04 883.862 2838.72 862.062 2838.72 831.53V329.462H2684.92V840.141C2684.92 903.494 2695.58 949.925 2717.2 979.614C2738.76 1009.36 2772.3 1024.3 2817.77 1024.3C2883.05 1024.3 2932.07 992.803 2964.89 929.45H2968.14L2981.57 1013.04H3101.89V329.523H2947.97V872.902L2947.91 872.962V873.022ZM2065.3 77.1339L2001.71 364.933C1983.88 449.123 1972.44 508.862 1967.2 544.574H1962.74C1953.26 483.984 1941.75 423.729 1928.23 363.909L1866.93 77.3748H1714.09L1889.33 709.882V1013.4H2040.85V709.882L2218.08 77.0737H2065.24L2065.3 77.1339ZM3737.47 873.022C3731.51 885.669 3722.36 896.147 3710.19 904.337C3698.86 912.156 3685.42 916.355 3671.65 916.382C3656.05 916.382 3644.91 909.757 3638.23 896.81C3631.6 883.862 3628.29 862.062 3628.29 831.53V329.462H3474.48V840.141C3474.48 903.494 3485.14 949.925 3506.82 979.614C3528.38 1009.36 3561.93 1024.3 3607.33 1024.3C3672.61 1024.3 3721.69 992.803 3754.51 929.45H3757.77L3771.2 1013.04H3891.46V329.523H3737.53V872.962L3737.47 873.022ZM4633.09 722.709H4890.84V605.578C4890.84 533.493 4884.93 476.945 4873.55 436.055C4861.93 395.104 4842.06 365.114 4813.69 345.722C4785.39 326.331 4744.92 316.695 4692.1 316.695C4615.44 316.695 4561.3 340.302 4529.81 387.395C4498.31 434.79 4482.41 509.525 4482.41 612.203V731.622C4482.41 831.349 4497.59 904.88 4528.06 952.455C4558.53 1000.15 4611.71 1023.94 4687.65 1023.94C4750.94 1023.94 4799.78 1008.28 4834.29 977.025C4868.79 945.83 4886.14 898.677 4886.14 835.324C4886.14 824.905 4885.84 816.655 4885.11 810.753L4752.33 803.045C4751.6 844.718 4746.91 874.468 4738.47 892.293C4730.04 910.119 4714.15 919.092 4691.08 919.092C4673.98 919.092 4661.27 913.913 4653.02 903.976C4644.89 894.04 4639.35 877.9 4636.94 856.04C4634.23 833.939 4632.91 801.238 4632.91 757.276V722.589L4633.09 722.709ZM4633.09 631.353V582.272C4633.09 537.829 4634.41 504.286 4637.06 482.485C4639.77 460.685 4644.95 444.787 4652.72 435.091C4660.43 425.455 4672.59 420.457 4688.91 420.698C4705.35 420.698 4717.52 425.395 4725.17 434.609C4732.87 443.823 4738.23 459.902 4741.25 482.546C4744.26 505.189 4745.76 538.431 4745.76 582.333V631.413H4633.15L4633.09 631.353ZM4355.65 345.24C4334.81 325.849 4306.26 316.153 4269.77 316.153C4241.47 316.153 4215.15 324.103 4190.58 340.242C4166.34 355.809 4146.71 377.58 4133.73 403.294H4132.47V42.9883H3984.08V1013.46H4111.15L4126.8 948.721H4130C4141.92 971.846 4159.81 989.912 4183.65 1003.34C4207.44 1016.77 4233.82 1023.46 4262.84 1023.46C4314.94 1023.46 4353.18 999.427 4377.69 951.491C4402.32 903.555 4414.42 828.639 4414.42 726.684V618.466C4414.6 542.044 4409.97 482.244 4400.75 439.066C4391.3 395.947 4376.42 364.692 4355.59 345.301L4355.65 345.24ZM4253.39 835.083C4249.42 863.387 4242.55 883.441 4232.79 895.425C4228.16 901.247 4222.21 905.895 4215.44 908.992C4208.67 912.089 4201.27 913.548 4193.83 913.25C4181.28 913.529 4168.9 910.344 4158.04 904.044C4147.18 897.744 4138.27 888.573 4132.28 877.539V489.11C4137.52 470.501 4146.44 455.446 4159.08 443.462C4171.73 431.598 4185.34 425.636 4200.27 425.636C4215.93 425.636 4227.98 431.839 4236.47 444.004C4244.9 456.108 4250.8 476.945 4254.29 505.731C4257.55 534.818 4259.29 576.009 4259.29 629.546V717.952H4259.53C4259.53 767.936 4257.55 806.839 4253.33 835.203L4253.39 835.083Z" fill="#999999"/>
<path d="M3520.01 77.4502H3063.89V201.266H3216.73V1013.29H3367.41V201.266H3520.01V77.4502Z" fill="#999999"/>
</svg>
